<svg version="1.1" id="Layer_1" xmlns="http://www.w3.org/2000/svg" xmlns:xlink="http://www.w3.org/1999/xlink" x="0px" y="0px"
	 width="100%" viewBox="0 0 3064 1413" enable-background="new 0 0 3064 1413" xml:space="preserve">
<path fill="#FEFEFE" opacity="1.000000" stroke="none" 
	d="
M2298.000000,1416.000000 
	C1532.085327,1416.000000 767.170532,1416.000000 2.127901,1416.000000 
	C2.127901,944.804504 2.127901,473.608948 2.127901,2.206704 
	C1023.333313,2.206704 2044.666626,2.206704 3065.956299,2.206704 
	C3065.956299,473.496643 3065.956299,944.748352 3065.956299,1416.000000 
	C2810.275146,1416.000000 2554.637451,1416.000000 2298.000000,1416.000000 
M1186.810425,130.784943 
	C1170.951538,130.516159 1155.092651,130.247391 1138.256104,129.962051 
	C1138.256104,125.742760 1138.258911,122.478935 1138.255615,119.215103 
	C1138.247192,110.884102 1138.403076,102.548813 1138.189697,94.223030 
	C1137.791870,78.702324 1128.391724,65.554352 1113.715942,61.217911 
	C1108.111938,59.562012 1101.885620,59.569401 1095.942627,59.567867 
	C812.687683,59.494766 529.432678,59.503796 246.177719,59.506817 
	C243.178894,59.506847 240.170227,59.401131 237.182907,59.598431 
	C221.994766,60.601540 211.420486,68.453773 206.222656,82.470955 
	C204.099945,88.195351 203.840759,94.853050 203.838303,101.086578 
	C203.729523,378.343140 203.744110,655.599792 203.745575,932.856384 
	C203.745590,935.522217 203.688019,938.191162 203.791458,940.853455 
	C204.426346,957.194824 215.741302,970.767944 231.855316,974.050842 
	C236.705582,975.039062 241.748917,975.278442 246.717834,975.446533 
	C259.677917,975.885132 272.645752,976.094299 285.660522,978.218811 
	C285.672150,989.476257 285.678802,1000.733643 285.696838,1011.991089 
	C285.713165,1022.188416 289.830750,1030.621582 297.103027,1037.517212 
	C304.442474,1044.476562 313.481506,1047.243164 323.430115,1047.290894 
	C337.666992,1047.359375 351.904205,1047.346558 366.293549,1049.284668 
	C366.441589,1056.607056 365.586273,1064.120117 366.934937,1071.214233 
	C370.323395,1089.037842 384.813660,1099.988770 403.637482,1099.991333 
	C521.969177,1100.007202 640.300903,1099.999634 758.632629,1099.999634 
	C944.963440,1099.999634 1131.294189,1100.001465 1317.625000,1099.995483 
	C1334.763428,1099.994873 1347.568970,1092.260132 1352.966553,1077.547974 
	C1354.962646,1072.107422 1355.568970,1065.888428 1355.571533,1060.023804 
	C1355.692871,790.694153 1355.448730,521.363953 1356.056274,252.035629 
	C1356.112549,227.150452 1341.442261,207.378387 1312.537354,208.761230 
	C1281.953857,210.224380 1251.234741,208.853195 1220.388794,207.075455 
	C1220.366699,194.126907 1219.958984,181.164856 1220.411865,168.232941 
	C1221.113159,148.205429 1204.319824,132.104797 1186.810425,130.784943 
M1717.085693,575.290344 
	C1738.056885,574.580078 1758.986206,573.646973 1779.585693,569.017578 
	C1811.296265,561.891174 1839.015259,546.322754 1866.064087,529.099548 
	C1870.752808,526.114014 1870.646729,522.417114 1870.642700,518.055969 
	C1870.607788,479.740692 1870.630615,441.425415 1870.601074,403.110168 
	C1870.599487,400.927124 1870.288940,398.744354 1870.132935,396.702942 
	C1820.531982,396.702942 1771.743042,396.702942 1723.031250,396.702942 
	C1723.031250,417.763489 1723.031250,438.196014 1723.031250,459.596619 
	C1744.529907,459.596619 1765.336182,459.596619 1786.162842,459.596619 
	C1786.162842,469.779785 1786.162842,478.970306 1786.162842,487.811584 
	C1762.775024,502.866547 1742.127197,508.836304 1716.905151,508.022003 
	C1686.536499,507.041504 1664.172485,490.105804 1656.118164,460.966064 
	C1653.390503,451.097931 1651.921265,440.753723 1651.051270,430.527161 
	C1649.259644,409.466888 1650.546753,388.555328 1657.903320,368.478516 
	C1665.718140,347.150909 1680.876709,333.500366 1703.075317,328.970673 
	C1712.046387,327.140106 1721.692749,327.231537 1730.873413,328.107910 
	C1749.427734,329.879272 1763.247314,339.330566 1771.361816,356.476898 
	C1772.324951,358.511963 1773.409058,360.489838 1774.669800,362.948212 
	C1805.271118,357.511078 1835.536743,352.133575 1866.243530,346.677643 
	C1865.184692,342.952728 1864.600952,340.396118 1863.737671,337.937622 
	C1849.844727,298.370758 1823.355103,272.396912 1781.482422,264.941772 
	C1742.848755,258.063263 1703.851562,257.226807 1665.312256,265.854340 
	C1616.873413,276.698059 1583.023193,305.597748 1565.838501,352.184296 
	C1549.187622,397.323761 1549.922241,443.049011 1567.543823,487.847778 
	C1584.273315,530.378479 1615.236206,557.371826 1659.836182,568.637512 
	C1678.074951,573.244446 1696.625244,574.296265 1717.085693,575.290344 
M2215.000488,501.279907 
	C2197.414307,501.279907 2179.827881,501.279907 2161.904297,501.279907 
	C2161.904297,480.845459 2161.904297,461.399597 2161.904297,440.950256 
	C2211.603271,440.950256 2260.710938,440.950256 2309.664062,440.950256 
	C2309.664062,419.787231 2309.664062,399.640076 2309.664062,378.905396 
	C2260.067871,378.905396 2211.166992,378.905396 2161.789062,378.905396 
	C2161.789062,362.496246 2161.789062,346.693207 2161.789062,329.935974 
	C2215.377197,329.935974 2268.500488,329.935974 2321.500488,329.935974 
	C2321.500488,307.848999 2321.500488,286.722900 2321.500488,265.743164 
	C2235.969482,265.743164 2151.111816,265.743164 2065.812256,265.743164 
	C2065.812256,367.266205 2065.812256,468.325867 2065.812256,569.411987 
	C2153.044434,569.411987 2239.783447,569.411987 2326.229736,569.411987 
	C2326.229736,546.521667 2326.229736,524.315063 2326.229736,501.279877 
	C2289.471191,501.279877 2253.235840,501.279877 2215.000488,501.279907 
M2670.185547,330.974426 
	C2674.147949,338.882965 2678.110352,346.791504 2682.713623,355.978455 
	C2710.733398,354.370239 2740.432129,352.665649 2770.838379,350.920471 
	C2768.103760,328.032043 2761.235840,308.339325 2745.887939,292.265533 
	C2730.001221,275.627258 2709.592041,268.125305 2687.638428,264.008545 
	C2660.211182,258.865295 2632.608643,258.975464 2605.041016,262.428925 
	C2580.896729,265.453491 2558.316895,272.757874 2539.389404,288.953125 
	C2502.785645,320.272949 2499.082275,381.433716 2544.916016,413.049103 
	C2551.996094,417.932800 2559.520020,422.603180 2567.493164,425.670837 
	C2583.276123,431.743256 2599.401855,437.004944 2615.600342,441.891693 
	C2630.537842,446.398071 2645.867676,449.606964 2660.795166,454.142578 
	C2666.705322,455.938324 2672.616943,458.990387 2677.451416,462.826660 
	C2691.298340,473.815063 2691.976318,491.628204 2679.069824,503.617950 
	C2675.062988,507.340240 2669.866211,510.223206 2664.715820,512.175903 
	C2655.563721,515.645935 2645.899658,515.854797 2636.160645,514.546753 
	C2614.375244,511.620880 2600.464600,499.570282 2594.121338,478.682709 
	C2592.689941,473.970093 2591.764160,469.103912 2590.366699,463.319641 
	C2560.195557,465.172638 2530.239502,467.012451 2499.491943,468.900848 
	C2500.473633,475.233765 2500.929443,480.190002 2502.035645,484.996704 
	C2511.945801,528.061523 2535.681396,557.981506 2580.512695,568.486694 
	C2603.415283,573.853333 2626.589355,575.384460 2649.905273,575.042908 
	C2667.882812,574.779480 2685.816650,573.005310 2703.188721,567.835754 
	C2733.943848,558.683533 2758.215088,541.396667 2772.198486,511.699127 
	C2790.197266,473.474396 2783.964844,421.580536 2735.724854,395.780212 
	C2727.261963,391.254059 2718.492188,386.807251 2709.332031,384.175018 
	C2684.113525,376.928375 2658.582031,370.778778 2633.242432,363.942322 
	C2625.581299,361.875427 2617.696533,359.856140 2610.699707,356.278717 
	C2597.703613,349.633759 2596.187256,335.791382 2606.828369,325.772583 
	C2609.419678,323.332977 2612.655762,320.916504 2616.000244,320.048615 
	C2635.169922,315.073853 2653.593994,315.207397 2670.185547,330.974426 
M1869.879517,1073.556519 
	C1832.058838,974.881104 1794.238159,876.205688 1756.511230,777.774780 
	C1721.088257,777.774780 1686.546509,777.774780 1651.585449,777.774780 
	C1612.772949,879.112183 1574.073120,980.155396 1535.223145,1081.590576 
	C1568.784546,1081.590576 1601.017700,1081.590576 1633.101318,1081.590576 
	C1638.143433,1064.880127 1643.034058,1048.671509 1647.912354,1032.503906 
	C1684.722900,1032.503906 1720.959717,1032.503906 1757.262695,1032.503906 
	C1762.528564,1049.219482 1767.683838,1065.584229 1772.680420,1081.445068 
	C1806.389038,1081.445068 1839.126099,1081.445068 1872.658691,1081.445068 
	C1871.689819,1078.790161 1871.024048,1076.965942 1869.879517,1073.556519 
M2515.985840,781.238831 
	C2515.985840,881.362488 2515.985840,981.486145 2515.985840,1081.487549 
	C2548.702148,1081.487549 2580.176025,1081.487549 2612.318604,1081.487549 
	C2612.318604,1044.030396 2612.318604,1007.175354 2612.318604,969.299744 
	C2616.193115,969.299744 2619.432129,969.299744 2622.671143,969.299744 
	C2635.996826,969.299683 2649.326172,969.494873 2662.647217,969.249634 
	C2678.968994,968.949219 2695.274414,968.071533 2711.153076,963.812256 
	C2744.719971,954.808289 2767.358643,934.478210 2775.979492,900.161194 
	C2780.846924,880.784241 2780.770264,861.229187 2776.086670,841.794495 
	C2769.334717,813.775635 2752.501221,794.283020 2725.219238,784.982605 
	C2714.326660,781.269409 2702.561768,778.402344 2691.146484,778.225159 
	C2634.528076,777.346558 2577.893799,777.476929 2521.264893,777.365479 
	C2519.544678,777.362061 2517.821777,778.610046 2515.985840,781.238831 
M2081.017578,777.277954 
	C2076.115234,777.277954 2071.213135,777.277954 2066.014648,777.277954 
	C2066.014648,879.290344 2066.014648,980.363586 2066.014648,1081.722046 
	C2147.711670,1081.722046 2228.889648,1081.722046 2310.319824,1081.722046 
	C2310.319824,1056.892212 2310.319824,1032.438965 2310.319824,1007.102661 
	C2260.499023,1007.102661 2211.306885,1007.102661 2160.999023,1007.102661 
	C2160.999023,930.124573 2160.999023,854.027771 2160.999023,777.277954 
	C2134.253906,777.277954 2108.631836,777.277954 2081.017578,777.277954 
M2099.326904,605.996826 
	C2098.328369,605.996887 2097.322998,606.073547 2096.332275,605.985657 
	C2078.149170,604.372314 2058.481201,620.936951 2059.502686,643.040894 
	C2060.346924,661.308228 2059.949951,679.650757 2059.599609,697.950378 
	C2059.256592,715.885254 2074.243896,732.883484 2094.308350,733.075623 
	C2117.937988,733.301880 2141.571533,733.183533 2165.203125,733.114685 
	C2185.739258,733.054810 2200.947754,715.581360 2200.436768,697.440125 
	C2199.921631,679.148254 2199.732910,660.806641 2200.478027,642.530640 
	C2201.342529,621.320557 2182.468750,605.273743 2164.150879,605.845581 
	C2143.202148,606.499512 2122.217285,605.996887 2099.326904,605.996826 
M325.596100,1331.550049 
	C328.776489,1331.712036 331.956879,1331.874146 335.895203,1332.074829 
	C335.895203,1308.633179 335.895203,1286.174072 335.895203,1263.714966 
	C336.516327,1263.580444 337.137421,1263.445923 337.758545,1263.311401 
	C345.570343,1286.054199 353.382172,1308.796997 361.265686,1331.748535 
	C364.938629,1331.748535 368.177643,1331.748535 371.744141,1331.748535 
	C379.750214,1309.093384 387.709534,1286.565430 395.698639,1264.048096 
	C395.765106,1263.860840 396.226837,1263.756470 396.517090,1263.721313 
	C396.821838,1263.684692 397.142273,1263.778442 398.054138,1263.885010 
	C398.054138,1286.381714 398.054138,1308.950806 398.054138,1331.563232 
	C401.795319,1331.563232 404.930908,1331.563232 408.019714,1331.563232 
	C408.019714,1302.171631 408.019714,1273.360474 408.019714,1244.476196 
	C402.456482,1244.476196 397.545349,1244.476196 392.503113,1244.476196 
	C384.248413,1268.669189 376.114594,1292.508057 367.227844,1318.553467 
	C358.287964,1292.130859 350.133392,1268.029419 342.217773,1244.634033 
	C335.608765,1244.634033 330.413147,1244.634033 324.607269,1244.634033 
	C324.607269,1273.491455 324.607269,1301.751343 325.596100,1331.550049 
M1718.019409,1279.198608 
	C1720.019775,1272.291016 1722.020264,1265.383301 1724.020630,1258.475708 
	C1724.482544,1258.546997 1724.944458,1258.618408 1725.406372,1258.689697 
	C1732.236084,1283.173706 1739.065674,1307.657593 1745.774170,1331.707153 
	C1750.328125,1331.707153 1753.575562,1331.707153 1757.284424,1331.707153 
	C1765.207764,1302.679321 1773.050781,1273.945801 1781.039307,1244.679688 
	C1776.531250,1244.679688 1773.084717,1244.679688 1769.386841,1244.679688 
	C1763.515259,1268.477051 1757.776855,1291.734863 1751.751343,1316.156372 
	C1744.895264,1291.113770 1738.501221,1267.759033 1732.088867,1244.336914 
	C1726.958496,1244.336914 1722.685181,1244.336914 1717.749756,1244.336914 
	C1711.052246,1268.035645 1704.370850,1291.677612 1697.689331,1315.319458 
	C1697.278198,1315.222778 1696.867065,1315.125977 1696.455811,1315.029175 
	C1690.966553,1291.481079 1685.477173,1267.932861 1680.056396,1244.678589 
	C1675.597900,1244.678589 1672.113892,1244.678589 1668.087646,1244.678589 
	C1672.121460,1259.870972 1675.955078,1274.321167 1679.795410,1288.769653 
	C1683.617676,1303.149414 1687.447021,1317.527222 1691.235229,1331.762817 
	C1695.745972,1331.762817 1699.339111,1331.762817 1703.331055,1331.762817 
	C1708.160645,1314.604736 1712.919434,1297.698120 1718.019409,1279.198608 
M2227.082275,1333.373535 
	C2233.597412,1332.161743 2240.295410,1329.413696 2246.577393,1330.161621 
	C2253.133789,1330.942017 2259.287598,1335.094482 2265.627686,1337.747803 
	C2265.898438,1337.861206 2266.274902,1337.721924 2267.221191,1337.659546 
	C2268.103271,1335.638062 2269.098877,1333.355957 2270.162354,1330.919189 
	C2265.350098,1327.950073 2261.001221,1325.266724 2256.191895,1322.299438 
	C2267.933838,1308.985474 2270.402100,1294.312012 2268.117188,1278.492188 
	C2265.233643,1258.527710 2250.722412,1245.007690 2230.560547,1243.372070 
	C2209.907715,1241.696777 2193.767090,1252.161011 2187.430420,1271.370117 
	C2183.883301,1282.122559 2183.689209,1293.033325 2187.012207,1303.780273 
	C2192.811523,1322.533447 2206.257324,1331.730713 2227.082275,1333.373535 
M1328.180054,1294.998901 
	C1328.180054,1278.121094 1328.180054,1261.243408 1328.180054,1244.391846 
	C1323.860840,1244.391846 1320.910400,1244.391846 1316.989258,1244.391846 
	C1316.989258,1252.005981 1316.989380,1259.281250 1316.989380,1266.556519 
	C1316.989380,1273.889404 1317.210205,1281.230957 1316.925293,1288.552856 
	C1316.656738,1295.458008 1318.281860,1302.596558 1315.275146,1310.458740 
	C1299.943604,1287.598633 1285.336060,1265.818237 1271.076538,1244.556641 
	C1266.599365,1244.556641 1263.053955,1244.556641 1259.326172,1244.556641 
	C1259.326172,1273.901733 1259.326172,1302.719482 1259.326172,1332.194824 
	C1263.151978,1331.993652 1266.303833,1331.827759 1270.424072,1331.611084 
	C1270.424072,1309.531006 1270.424072,1288.165649 1270.424072,1264.448120 
	C1273.788574,1269.135620 1275.749023,1271.715942 1277.551147,1274.402222 
	C1288.687866,1291.001831 1299.784912,1307.628052 1310.903442,1324.239990 
	C1316.831787,1333.097412 1316.839111,1333.092529 1328.180176,1330.735474 
	C1328.180176,1319.578979 1328.180176,1308.288330 1328.180054,1294.998901 
M1022.717896,1302.274780 
	C1009.783142,1282.926636 996.848328,1263.578491 984.060181,1244.449707 
	C979.896362,1244.449707 976.347961,1244.449707 972.334229,1244.449707 
	C972.334229,1273.672363 972.334229,1302.479614 972.334229,1331.661865 
	C975.942993,1331.661865 979.095581,1331.661865 983.357056,1331.661865 
	C983.357056,1309.839478 983.357056,1288.463867 983.357056,1267.088135 
	C983.991333,1266.917480 984.625549,1266.746704 985.259827,1266.575928 
	C999.958557,1288.483154 1014.657288,1310.390259 1028.877686,1331.584351 
	C1033.587769,1331.584351 1037.116699,1331.584351 1040.773438,1331.584351 
	C1040.773438,1302.220703 1040.773438,1273.422485 1040.773438,1243.975098 
	C1036.947388,1244.179443 1033.791748,1244.347900 1029.654785,1244.568726 
	C1029.654785,1266.616455 1029.654785,1287.964478 1029.654785,1311.530884 
	C1026.667480,1307.552368 1025.134766,1305.510986 1022.717896,1302.274780 
M568.382874,1302.657227 
	C565.270386,1299.226196 562.157959,1295.795166 558.956604,1292.266113 
	C560.590393,1291.633789 562.707825,1290.833984 564.810425,1289.997070 
	C576.305786,1285.420776 581.426208,1277.148926 580.243896,1265.084595 
	C579.162720,1254.051514 572.251526,1245.835693 560.305664,1245.058228 
	C543.879944,1243.989136 527.332397,1244.790527 510.659546,1244.790527 
	C510.659546,1274.008423 510.659546,1302.768433 510.659546,1332.187378 
	C514.715088,1331.983398 518.140991,1331.811035 521.924622,1331.620728 
	C521.924622,1324.595215 521.924561,1318.634888 521.924561,1312.674438 
	C521.924561,1306.460815 521.924622,1300.247314 521.924622,1294.192383 
	C544.835754,1291.776245 547.530212,1292.987915 559.359924,1310.808838 
	C563.941895,1317.711304 568.354431,1324.726196 572.661560,1331.406738 
	C577.491211,1331.406738 581.845337,1331.406738 586.681641,1331.406738 
	C585.880493,1329.726929 585.557373,1328.803101 585.040894,1328.004395 
	C579.806396,1319.910767 574.540405,1311.837646 568.382874,1302.657227 
M2135.560547,1275.429688 
	C2137.891113,1256.990234 2131.785156,1246.354858 2115.657227,1244.995605 
	C2099.550781,1243.638550 2083.240723,1244.697998 2066.636719,1244.697998 
	C2066.636719,1273.869873 2066.636719,1302.666992 2066.636719,1332.160034 
	C2070.669434,1331.973877 2074.097412,1331.815552 2078.318115,1331.620728 
	C2078.318115,1318.407104 2078.318115,1306.204468 2078.318115,1294.436768 
	C2095.710449,1290.092285 2107.545654,1295.850708 2115.541260,1310.833618 
	C2119.432129,1318.124756 2124.429932,1324.825073 2128.935547,1331.806763 
	C2133.520020,1331.806763 2137.772217,1331.806763 2143.506348,1331.806763 
	C2133.929443,1317.803833 2127.375977,1303.082275 2114.345215,1292.559204 
	C2129.195068,1286.613037 2129.622803,1286.280273 2135.560547,1275.429688 
M1440.608398,1243.727173 
	C1436.512695,1245.001709 1432.168579,1245.775024 1428.373169,1247.655640 
	C1420.562744,1251.525513 1416.530151,1258.329346 1416.353516,1266.954590 
	C1416.171387,1275.842041 1420.893188,1282.111938 1428.660767,1285.910400 
	C1432.506836,1287.791260 1436.703491,1289.019043 1440.828125,1290.252319 
	C1447.510010,1292.250000 1454.315918,1293.840454 1460.970459,1295.919678 
	C1466.631226,1297.688477 1471.387451,1300.707153 1471.725586,1307.472656 
	C1472.014404,1313.251099 1467.437256,1319.083618 1460.613281,1321.332764 
	C1445.765259,1326.227051 1426.544922,1320.756226 1424.320312,1303.870483 
	C1424.208252,1303.020264 1423.404053,1302.261230 1423.014160,1301.612671 
	C1419.822388,1301.612671 1416.934082,1301.612671 1413.779175,1301.612671 
	C1412.848877,1310.298584 1416.171509,1316.989258 1421.451660,1322.767334 
	C1433.703125,1336.174683 1462.287476,1337.019287 1475.449097,1324.532471 
	C1487.298706,1313.290161 1485.292725,1295.223999 1470.906738,1287.547241 
	C1465.717651,1284.778442 1459.724365,1283.473022 1454.037598,1281.692627 
	C1447.385498,1279.610107 1440.379395,1278.392944 1434.051636,1275.607910 
	C1426.262451,1272.179810 1425.580811,1263.228394 1432.005005,1257.629883 
	C1439.204224,1251.356201 1458.303955,1251.814575 1464.536621,1258.819702 
	C1467.096069,1261.696289 1468.571289,1265.537476 1470.847534,1269.472046 
	C1473.723389,1269.244873 1476.811035,1269.001099 1480.278320,1268.727417 
	C1479.390137,1257.333008 1474.219604,1249.672852 1464.677856,1246.562256 
	C1457.611328,1244.258545 1449.730835,1244.451172 1440.608398,1243.727173 
M242.284683,1268.578613 
	C243.114624,1276.535889 247.315567,1282.277832 254.327042,1285.752930 
	C258.164520,1287.654785 262.344757,1288.938599 266.468811,1290.172363 
	C273.469757,1292.266602 280.617920,1293.884399 287.571869,1296.114990 
	C292.855408,1297.809814 297.229340,1300.859253 297.726562,1307.110840 
	C298.160034,1312.560913 294.144775,1318.142944 287.842072,1320.768677 
	C281.504639,1323.408813 274.925903,1323.727905 268.264343,1322.134155 
	C259.941650,1320.143188 253.714355,1315.792725 251.328857,1307.078857 
	C250.817810,1305.212036 250.032852,1303.420166 249.196411,1301.101196 
	C245.888290,1301.286743 242.766220,1301.461792 239.650909,1301.636475 
	C240.238083,1311.740845 241.849976,1316.275391 246.523499,1321.777710 
	C258.743256,1336.164429 288.575073,1337.401367 301.904419,1324.074341 
	C313.437012,1312.543457 310.935730,1294.642212 296.369019,1287.174316 
	C291.412872,1284.633423 285.761963,1283.409668 280.376007,1281.755127 
	C273.711761,1279.707886 266.716766,1278.477661 260.366241,1275.733765 
	C252.158813,1272.187378 251.412735,1262.599976 258.537903,1257.251953 
	C260.586029,1255.714600 263.216125,1254.645142 265.739166,1254.098511 
	C281.390686,1250.707397 289.187012,1254.502319 296.677460,1269.361206 
	C299.492950,1269.233398 302.615753,1269.091797 305.754333,1268.949341 
	C304.939026,1256.953613 300.075012,1249.963867 290.141357,1246.088867 
	C281.861420,1242.859009 273.259674,1242.496216 264.585724,1243.981323 
	C251.238922,1246.266479 244.736252,1253.052612 242.284683,1268.578613 
M1657.739868,1326.412231 
	C1657.739868,1299.215820 1657.739868,1272.019409 1657.739868,1244.698975 
	C1653.204712,1244.698975 1649.772095,1244.698975 1645.557617,1244.698975 
	C1645.557617,1256.883911 1645.557617,1268.419067 1645.557617,1279.774414 
	C1635.088013,1281.846924 1608.018677,1281.557739 1599.889771,1279.223999 
	C1599.889771,1267.958496 1599.889771,1256.429077 1599.889771,1244.495239 
	C1597.509033,1244.299561 1595.918335,1244.035034 1594.334839,1244.073120 
	C1592.463013,1244.118164 1590.597412,1244.424805 1588.782593,1244.612427 
	C1588.782593,1274.133789 1588.782593,1302.911499 1588.782593,1331.697266 
	C1592.658569,1331.697266 1595.881592,1331.697266 1600.262695,1331.697266 
	C1600.262695,1318.173218 1600.262695,1305.048096 1600.262695,1292.039307 
	C1615.926392,1292.039307 1630.418213,1292.039307 1646.092285,1292.039307 
	C1646.092285,1305.720825 1646.092285,1318.820435 1646.092285,1332.739624 
	C1650.835449,1330.856201 1656.220825,1335.268799 1657.739868,1326.412231 
M1099.208374,1244.034058 
	C1093.160156,1243.565918 1094.285767,1247.980225 1094.279053,1251.444580 
	C1094.236328,1273.738525 1094.256958,1296.032593 1094.256836,1318.326538 
	C1094.256836,1322.589966 1094.256836,1326.853271 1094.256836,1331.590576 
	C1098.538330,1331.590576 1101.958008,1331.590576 1106.143311,1331.590576 
	C1106.143311,1323.134155 1106.012817,1315.205078 1106.219727,1307.284790 
	C1106.285156,1304.776123 1106.491821,1301.646240 1107.955078,1299.921509 
	C1111.666504,1295.546875 1116.126343,1291.807129 1120.525757,1287.583496 
	C1129.633789,1300.513306 1138.468872,1311.833984 1145.892090,1324.015137 
	C1151.000122,1332.397217 1157.175903,1333.561646 1166.540771,1331.137451 
	C1153.725342,1313.647827 1141.427368,1296.864502 1128.831909,1279.675049 
	C1140.628662,1267.641846 1151.871460,1256.173584 1163.151123,1244.667847 
	C1154.716187,1242.402466 1148.162964,1244.699707 1142.199341,1251.354126 
	C1134.440796,1260.011353 1125.777222,1267.858398 1117.486816,1276.037598 
	C1114.280273,1279.201172 1111.029175,1282.319824 1106.142456,1287.067627 
	C1106.142456,1281.584473 1106.143311,1278.392822 1106.142212,1275.201050 
	C1106.139282,1266.549683 1106.025757,1257.896240 1106.183350,1249.247803 
	C1106.251709,1245.487305 1104.991821,1243.575684 1099.208374,1244.034058 
M826.730408,1306.362915 
	C832.849670,1314.990601 838.968872,1323.618286 844.782288,1331.814697 
	C849.924133,1331.814697 854.173523,1331.814697 859.933167,1331.814697 
	C846.850403,1313.866577 834.431702,1296.829590 821.897644,1279.634277 
	C834.047424,1267.857788 845.600708,1256.659546 857.659302,1244.971436 
	C847.398315,1242.326782 840.732300,1245.054688 834.508057,1252.027588 
	C825.442322,1262.183960 815.319092,1271.400635 805.559998,1280.929077 
	C804.118896,1282.336060 802.201843,1283.255615 799.184875,1285.291626 
	C799.184875,1270.772461 799.184875,1257.908203 799.184875,1244.681641 
	C794.973389,1244.681641 791.578674,1244.681641 788.212280,1244.681641 
	C788.212280,1274.111572 788.212280,1302.893555 788.212280,1331.635010 
	C792.021301,1331.635010 795.212463,1331.635010 799.314331,1331.635010 
	C799.314331,1323.231201 799.494568,1315.300659 799.242737,1307.383911 
	C799.104980,1303.054077 800.275818,1299.718018 803.657410,1296.904175 
	C806.914429,1294.193970 809.829712,1291.072998 813.483093,1287.568481 
	C817.916443,1293.844727 821.920349,1299.512939 826.730408,1306.362915 
M1999.493164,1322.020752 
	C1998.351074,1321.118042 1996.243774,1320.242676 1996.217163,1319.308228 
	C1995.965088,1310.464844 1996.067017,1301.611328 1996.067017,1291.962646 
	C2012.708984,1291.962646 2028.210205,1291.962646 2043.778076,1291.962646 
	C2043.778076,1288.328613 2043.778076,1285.543091 2043.778076,1281.901489 
	C2027.738647,1281.901489 2012.251099,1281.901489 1996.592285,1281.901489 
	C1996.592285,1272.265991 1996.592285,1263.517944 1996.592285,1253.779785 
	C2014.028442,1253.779785 2030.837158,1253.779785 2047.517944,1253.779785 
	C2047.517944,1250.207153 2047.517944,1247.643066 2047.517944,1244.664062 
	C2026.369629,1244.664062 2005.630493,1244.664062 1984.763672,1244.664062 
	C1984.763672,1274.014771 1984.763672,1302.751221 1984.763672,1331.402832 
	C2006.841309,1331.402832 2028.274048,1331.402832 2049.516113,1331.402832 
	C2049.516113,1328.123413 2049.516113,1325.565186 2049.516113,1322.050293 
	C2033.197510,1322.050293 2017.305420,1322.050293 1999.493164,1322.020752 
M1803.942505,1265.161377 
	C1803.942505,1261.654541 1803.942505,1258.147705 1803.942505,1253.655518 
	C1822.132446,1253.655518 1838.923218,1253.655518 1856.036865,1253.655518 
	C1855.854004,1250.060425 1855.723999,1247.504883 1855.582397,1244.722168 
	C1834.240112,1244.722168 1813.504883,1244.722168 1792.820312,1244.722168 
	C1792.820312,1274.134888 1792.820312,1302.874390 1792.820312,1331.664429 
	C1814.703369,1331.664429 1835.889404,1331.664429 1857.448730,1331.664429 
	C1857.448730,1328.439087 1857.448730,1325.673950 1857.448730,1321.891846 
	C1839.507202,1321.891846 1822.047241,1321.891846 1804.674683,1321.891846 
	C1804.674683,1311.444336 1804.674683,1302.030518 1804.674683,1291.806396 
	C1820.904663,1291.806396 1836.419067,1291.806396 1852.489502,1291.806396 
	C1852.202637,1288.137573 1851.984497,1285.348022 1851.702393,1281.741455 
	C1835.535156,1281.741455 1820.053711,1281.741455 1803.942383,1281.741455 
	C1803.942383,1276.270142 1803.942383,1271.667725 1803.942505,1265.161377 
M672.126587,1320.750732 
	C672.126587,1324.295654 672.126587,1327.840454 672.126587,1331.467285 
	C694.730530,1331.467285 716.168457,1331.467285 738.213013,1331.467285 
	C737.825745,1327.971680 737.518616,1325.199463 737.143677,1321.815186 
	C719.232361,1321.815186 702.044128,1321.815186 684.546387,1321.815186 
	C684.546387,1311.690063 684.546387,1302.276123 684.546387,1292.024536 
	C700.631775,1292.024536 716.128357,1292.024536 731.818604,1292.024536 
	C731.818604,1288.379517 731.818604,1285.599243 731.818604,1281.966187 
	C715.819580,1281.966187 700.327148,1281.966187 684.553589,1281.966187 
	C684.553589,1272.343384 684.553589,1263.594482 684.553589,1253.847412 
	C701.945801,1253.847412 718.751221,1253.847412 736.183777,1253.847412 
	C735.778931,1250.004395 735.486816,1247.231689 735.212158,1244.624756 
	C713.918030,1244.624756 693.439392,1244.624756 672.126587,1244.624756 
	C672.126587,1269.726440 672.126587,1294.267700 672.126587,1320.750732 
M2342.469482,1296.571655 
	C2342.334473,1298.895386 2342.313965,1301.232300 2342.045166,1303.540527 
	C2340.516602,1316.677856 2334.045166,1321.991577 2319.619873,1322.037720 
	C2306.105957,1322.080811 2298.644043,1316.621216 2297.793945,1304.169312 
	C2296.776611,1289.269043 2297.046143,1274.279907 2296.804688,1259.328369 
	C2296.725586,1254.438965 2296.792236,1249.546997 2296.792236,1244.428101 
	C2292.473633,1244.428101 2289.232422,1244.428101 2285.734619,1244.428101 
	C2285.734619,1264.710571 2285.145508,1284.638672 2285.914062,1304.514282 
	C2286.575195,1321.614258 2295.288086,1330.349976 2312.563232,1332.404907 
	C2319.034424,1333.174561 2325.948730,1333.020386 2332.273926,1331.583984 
	C2342.643311,1329.229370 2350.182861,1322.771729 2352.416504,1311.816284 
	C2353.535645,1306.327881 2354.148438,1300.656494 2354.246826,1295.054932 
	C2354.497803,1280.759766 2354.362305,1266.457275 2354.302979,1252.157959 
	C2354.292480,1249.602539 2353.906494,1247.048706 2353.697754,1244.539551 
	C2349.867188,1244.539551 2346.683350,1244.539551 2342.515625,1244.539551 
	C2342.515625,1261.564209 2342.515625,1278.118896 2342.469482,1296.571655 
M426.833313,1309.666382 
	C424.115845,1316.784668 421.398346,1323.902832 418.446136,1331.635986 
	C422.902588,1331.635986 426.716156,1331.635986 430.632324,1331.635986 
	C434.083038,1322.672363 437.378265,1314.112549 440.512421,1305.971191 
	C453.440948,1305.971191 465.316742,1305.971191 477.146484,1305.971191 
	C480.809265,1314.996826 484.272736,1323.531372 487.491791,1331.463623 
	C492.258881,1331.463623 496.021729,1331.463623 500.643372,1331.463623 
	C488.336548,1301.799072 476.406555,1273.042725 464.487549,1244.312988 
	C460.174622,1244.312988 456.573181,1244.312988 452.328552,1244.312988 
	C444.039368,1265.645996 435.759247,1286.955688 426.833313,1309.666382 
M2436.150879,1308.634521 
	C2427.268066,1287.201904 2418.385010,1265.769287 2409.624268,1244.631836 
	C2405.005127,1244.631836 2401.149414,1244.631836 2397.177734,1244.631836 
	C2385.861572,1273.757080 2374.732422,1302.401855 2363.316650,1331.783813 
	C2368.161377,1331.783813 2371.737793,1331.783813 2375.629639,1331.783813 
	C2378.947510,1323.002441 2382.202148,1314.388550 2385.410156,1305.898193 
	C2398.070312,1305.898193 2409.941895,1305.898193 2422.172119,1305.898193 
	C2425.707764,1314.731201 2429.130371,1323.281738 2432.520508,1331.750854 
	C2437.054199,1331.750854 2440.969971,1331.750854 2445.663086,1331.750854 
	C2442.511719,1324.114258 2439.611572,1317.086182 2436.150879,1308.634521 
M1187.158936,1332.099487 
	C1205.413696,1332.099487 1223.668457,1332.099487 1242.250000,1332.099487 
	C1242.250000,1328.456177 1242.250000,1325.679810 1242.250000,1321.819824 
	C1224.298096,1321.819824 1206.852417,1321.819824 1189.578613,1321.819824 
	C1189.578613,1311.305054 1189.578613,1301.894043 1189.578613,1291.745850 
	C1205.952148,1291.745850 1221.500854,1291.745850 1237.685547,1291.745850 
	C1237.446411,1288.158569 1237.262207,1285.395874 1237.030762,1281.922607 
	C1220.789185,1281.922607 1205.257202,1281.922607 1189.365234,1281.922607 
	C1189.365234,1272.354004 1189.365234,1263.555542 1189.365234,1253.754395 
	C1206.778198,1253.754395 1223.590820,1253.754395 1240.745117,1253.754395 
	C1240.563110,1250.154175 1240.433105,1247.581177 1240.280029,1244.553345 
	C1219.373413,1244.553345 1198.888184,1244.553345 1177.921021,1244.553345 
	C1177.921021,1273.750366 1177.921021,1302.500244 1177.921021,1332.099243 
	C1180.682251,1332.099243 1182.938354,1332.099243 1187.158936,1332.099487 
M1497.496948,1272.966187 
	C1497.079712,1280.893188 1495.522339,1288.958008 1496.459961,1296.721313 
	C1499.206543,1319.459717 1512.434692,1331.750122 1534.261597,1333.279297 
	C1553.696411,1334.640869 1569.291504,1322.851074 1572.242920,1304.169312 
	C1570.817871,1303.615845 1569.344360,1302.806152 1567.772217,1302.494263 
	C1565.920410,1302.126709 1563.983032,1302.190308 1562.086670,1302.067139 
	C1561.325439,1303.702759 1560.742065,1304.888794 1560.215088,1306.099243 
	C1554.981812,1318.119751 1546.739746,1323.630859 1534.813110,1323.071045 
	C1522.041504,1322.471558 1513.327515,1315.463867 1509.690430,1302.653198 
	C1506.898804,1292.820435 1506.900513,1282.941528 1509.815552,1273.116577 
	C1513.290771,1261.403687 1520.919312,1254.858765 1532.402954,1253.653687 
	C1545.909790,1252.236328 1552.445068,1255.717163 1559.189819,1267.848755 
	C1559.793823,1268.935059 1560.670532,1269.869751 1561.510620,1270.995361 
	C1564.986450,1270.105591 1568.097534,1269.309082 1571.236328,1268.505615 
	C1566.754395,1253.610718 1557.792847,1245.772461 1543.936768,1243.727417 
	C1524.736084,1240.893433 1504.114502,1249.635498 1497.496948,1272.966187 
M2655.669922,1248.203125 
	C2644.952637,1275.771362 2634.235352,1303.339600 2623.249023,1331.599854 
	C2627.986816,1331.599854 2631.791992,1331.599854 2635.592041,1331.599854 
	C2638.909424,1322.769531 2642.046875,1314.417969 2645.264160,1305.854004 
	C2657.664307,1305.854004 2669.564209,1305.854004 2681.893799,1305.854004 
	C2685.374756,1314.581787 2688.801025,1323.172363 2692.211182,1331.722900 
	C2696.647705,1331.722900 2700.552734,1331.722900 2705.419678,1331.722900 
	C2693.214844,1302.185425 2681.300781,1273.351929 2668.995605,1243.571411 
	C2664.675049,1245.518677 2659.685547,1241.315308 2655.669922,1248.203125 
M1942.937988,1269.906006 
	C1930.746460,1285.320190 1918.710205,1300.861328 1906.272949,1316.074585 
	C1902.342407,1320.882324 1900.898926,1325.597046 1902.662476,1331.398438 
	C1925.817993,1331.398438 1948.621582,1331.398438 1971.775635,1331.398438 
	C1971.618042,1328.096069 1971.496094,1325.538574 1971.330322,1322.065308 
	C1953.002075,1322.065308 1935.223511,1322.065308 1915.725708,1322.065308 
	C1917.969971,1319.230469 1919.127563,1317.749878 1920.304077,1316.284424 
	C1935.319214,1297.582520 1950.236084,1278.800049 1965.424805,1260.240112 
	C1969.267456,1255.544556 1971.493164,1250.915649 1969.226929,1244.618164 
	C1948.841187,1244.618164 1928.374390,1244.618164 1907.249146,1244.618164 
	C1907.398193,1248.029663 1907.521118,1250.843018 1907.680664,1254.495728 
	C1923.490845,1254.495728 1938.602661,1254.495728 1955.200806,1254.495728 
	C1950.748901,1260.103394 1947.299805,1264.447876 1942.937988,1269.906006 
M2709.938965,1253.818359 
	C2718.820068,1253.818359 2727.701172,1253.818359 2737.582031,1253.818359 
	C2737.582031,1280.552368 2737.582031,1305.990723 2737.582031,1331.754883 
	C2741.798340,1331.754883 2744.993164,1331.754883 2749.236816,1331.754883 
	C2749.236816,1305.945923 2749.236816,1280.494263 2749.236816,1253.995361 
	C2759.400635,1253.995361 2768.545166,1253.995361 2778.314209,1253.995361 
	C2777.963135,1250.087769 2777.713379,1247.307617 2777.462402,1244.513428 
	C2754.200195,1244.513428 2731.702637,1244.513428 2708.541260,1244.513428 
	C2708.541260,1247.545044 2708.541260,1250.101562 2709.938965,1253.818359 
M618.272461,1302.988892 
	C618.272461,1312.550659 618.272461,1322.112549 618.272461,1331.663330 
	C622.753662,1331.663330 625.970703,1331.663330 630.245483,1331.663330 
	C630.245483,1305.759399 630.245483,1280.295288 630.245483,1253.832764 
	C640.442810,1253.832764 649.603821,1253.832764 659.447510,1253.832764 
	C659.084412,1249.953735 658.823792,1247.169312 658.586426,1244.633789 
	C635.180115,1244.633789 612.644043,1244.633789 589.538635,1244.633789 
	C589.784363,1248.064453 589.984558,1250.860229 590.238464,1254.404785 
	C599.802917,1254.404785 608.672485,1254.404785 618.272522,1254.404785 
	C618.272522,1270.465820 618.272522,1285.728882 618.272461,1302.988892 
M2592.078125,1324.598389 
	C2592.078125,1301.432739 2592.078125,1278.267090 2592.078125,1254.112061 
	C2602.150635,1254.112061 2611.293457,1254.112061 2620.669434,1254.112061 
	C2620.669434,1250.329956 2620.669434,1247.558594 2620.669434,1244.439697 
	C2597.598633,1244.439697 2575.135986,1244.439697 2552.154053,1244.439697 
	C2552.154053,1247.615845 2552.154053,1250.399414 2552.154053,1254.271484 
	C2561.461426,1254.271484 2570.581055,1254.271484 2580.592285,1254.271484 
	C2580.592285,1280.777222 2580.592285,1306.214355 2580.592285,1331.551636 
	C2590.672607,1332.300903 2590.672607,1332.300903 2592.078125,1324.598389 
M2509.431396,1330.706299 
	C2509.431396,1327.932739 2509.431396,1325.159180 2509.431396,1321.529541 
	C2494.238037,1321.529541 2480.430176,1321.529541 2465.697754,1321.529541 
	C2465.697754,1295.242310 2465.697754,1269.817871 2465.697754,1243.923950 
	C2461.503418,1244.148804 2458.304932,1244.320435 2454.826172,1244.506958 
	C2454.826172,1273.852539 2454.826172,1302.581177 2454.826172,1331.828491 
	C2472.908447,1331.828491 2490.445557,1331.828491 2509.431396,1330.706299 
M920.515320,1322.048828 
	C907.653137,1322.048828 894.790955,1322.048828 880.996948,1322.048828 
	C880.996948,1295.459839 880.996948,1270.026611 880.996948,1244.514404 
	C876.839844,1244.514404 873.649719,1244.514404 870.041931,1244.514404 
	C870.041931,1273.723755 870.041931,1302.455933 870.041931,1331.630127 
	C888.237488,1331.630127 905.988342,1331.630127 925.062805,1331.630127 
	C924.034607,1327.960449 923.226501,1325.076538 920.515320,1322.048828 
M1074.487671,1257.372803 
	C1074.487671,1253.138550 1074.487671,1248.904175 1074.487671,1244.366089 
	C1070.316650,1244.366089 1067.074707,1244.366089 1063.325195,1244.366089 
	C1063.325195,1273.542847 1063.325195,1302.358887 1063.325195,1331.619385 
	C1067.095093,1331.619385 1070.541748,1331.619385 1074.487183,1331.619385 
	C1074.487183,1307.140869 1074.487183,1283.213501 1074.487671,1257.372803 
M2525.941406,1326.515747 
	C2527.505859,1332.914062 2527.505859,1332.914062 2537.100098,1330.809570 
	C2537.100098,1302.047241 2537.100098,1273.284790 2537.100098,1244.524414 
	C2533.241943,1244.524414 2530.039795,1244.524414 2525.938965,1244.524414 
	C2525.938965,1271.537720 2525.938965,1298.066772 2525.941406,1326.515747 
M1875.938965,1277.004150 
	C1875.938965,1295.185547 1875.938965,1313.366943 1875.938965,1332.224731 
	C1880.555420,1331.986938 1883.964111,1331.811279 1887.307251,1331.639038 
	C1887.307251,1302.048218 1887.307251,1273.564331 1887.307251,1244.645996 
	C1883.452515,1244.645996 1880.052246,1244.645996 1875.938965,1244.645996 
	C1875.938965,1255.168091 1875.938965,1265.087891 1875.938965,1277.004150 
M951.751831,1285.000366 
	C951.751831,1271.488770 951.751831,1257.977173 951.751831,1243.941650 
	C947.180298,1244.141724 943.984314,1244.281494 940.437134,1244.436646 
	C940.437134,1273.820679 940.437134,1302.572754 940.437134,1331.444336 
	C944.366516,1331.444336 947.775085,1331.444336 951.751770,1331.444336 
	C951.751770,1316.165283 951.751770,1301.582764 951.751831,1285.000366 
M1349.608887,1329.018311 
	C1351.474487,1330.863770 1353.340210,1332.709351 1355.529175,1334.874634 
	C1354.733765,1337.159912 1353.988037,1339.678833 1352.980957,1342.088623 
	C1352.016602,1344.395630 1347.578247,1345.959106 1351.530396,1349.258179 
	C1361.411499,1344.299805 1363.976318,1336.432251 1360.540649,1321.725830 
	C1357.079712,1321.725830 1353.615601,1321.725830 1349.916016,1321.725830 
	C1349.774170,1323.998047 1349.672363,1325.630493 1349.608887,1329.018311 
M2680.182129,1229.952271 
	C2676.980713,1226.346191 2673.260254,1228.261108 2669.572021,1228.453003 
	C2669.572021,1232.337158 2669.572021,1235.661987 2669.572021,1239.636230 
	C2673.550781,1239.388306 2676.645264,1239.195435 2680.355225,1238.964355 
	C2680.355225,1235.984985 2680.355225,1233.739258 2680.182129,1229.952271 
M2657.985840,1231.195435 
	C2655.029785,1225.281860 2650.614746,1228.652832 2646.025391,1228.791138 
	C2646.297852,1232.567993 2646.522949,1235.686890 2646.736572,1238.648682 
	C2656.849609,1239.838013 2656.849609,1239.838013 2657.985840,1231.195435 
z"/>
<path fill="#F53838" opacity="1.000000" stroke="none" 
	d="
M1220.574951,208.720032 
	C1251.234741,208.853195 1281.953857,210.224380 1312.537354,208.761230 
	C1341.442261,207.378387 1356.112549,227.150452 1356.056274,252.035629 
	C1355.448730,521.363953 1355.692871,790.694153 1355.571533,1060.023804 
	C1355.568970,1065.888428 1354.962646,1072.107422 1352.966553,1077.547974 
	C1347.568970,1092.260132 1334.763428,1099.994873 1317.625000,1099.995483 
	C1131.294189,1100.001465 944.963440,1099.999634 758.632629,1099.999634 
	C640.300903,1099.999634 521.969177,1100.007202 403.637482,1099.991333 
	C384.813660,1099.988770 370.323395,1089.037842 366.934937,1071.214233 
	C365.586273,1064.120117 366.441589,1056.607056 366.219849,1047.431885 
	C366.165283,1042.580688 366.201111,1039.582153 366.201141,1036.583740 
	C366.203796,775.370056 366.203613,514.156372 366.203827,252.942642 
	C366.203857,250.277206 366.132080,247.609268 366.220978,244.946762 
	C366.546143,235.208786 370.166138,226.890457 376.942596,219.870697 
	C384.972198,211.552826 394.948730,209.593216 406.094910,209.597931 
	C672.972656,209.711044 939.850403,209.690430 1206.728149,209.645096 
	C1211.343750,209.644302 1215.959351,209.041779 1220.574951,208.720032 
M1049.000122,547.294739 
	C1022.107422,547.294739 995.214722,547.294739 967.574829,547.294739 
	C967.574829,542.408630 967.574768,538.781677 967.574768,535.154785 
	C967.574768,477.509094 967.574951,419.863373 967.574280,362.217682 
	C967.574280,359.885193 967.664795,357.547852 967.547852,355.221039 
	C966.869629,341.723450 959.536804,334.169495 946.078247,334.135559 
	C888.766113,333.991028 831.453491,334.073853 774.140991,334.074921 
	C773.474609,334.074951 772.805908,334.057892 772.142273,334.105408 
	C761.229614,334.886688 754.215881,341.236115 752.709167,352.036652 
	C752.252258,355.311523 752.435852,358.684753 752.435120,362.012939 
	C752.421692,419.991852 752.425293,477.970734 752.425232,535.949646 
	C752.425232,539.468140 752.425171,542.986633 752.425171,547.294922 
	C747.398438,547.294922 743.789490,547.294983 740.180603,547.294983 
	C682.534912,547.295044 624.889221,547.288757 567.243530,547.309753 
	C563.583801,547.311096 559.887695,547.236450 556.271790,547.695679 
	C547.322876,548.831970 541.144165,555.075378 539.985535,563.996399 
	C539.644287,566.623901 539.757690,569.317749 539.757141,571.981201 
	C539.745605,626.961182 539.747131,681.941223 539.749268,736.921204 
	C539.749329,738.920166 539.683411,740.925720 539.816345,742.916992 
	C540.539612,753.754822 547.279053,760.791199 558.072205,761.824219 
	C561.045715,762.108826 564.065430,761.929993 567.063965,761.930237 
	C625.042847,761.934265 683.021790,761.933350 741.000671,761.933411 
	C744.557251,761.933411 748.113831,761.933411 752.425171,761.933411 
	C752.425171,766.679077 752.425171,770.277771 752.425171,773.876404 
	C752.425354,831.522095 752.407471,889.167847 752.464844,946.813477 
	C752.468811,950.777893 752.578430,954.843018 753.431458,958.685303 
	C755.349060,967.323120 761.299561,972.576843 769.956482,973.728333 
	C772.580811,974.077454 775.277832,973.925476 777.941589,973.925903 
	C832.588379,973.934937 887.235168,973.933044 941.881958,973.932190 
	C943.881226,973.932129 945.887634,974.029785 947.878601,973.898315 
	C958.752808,973.180420 965.792297,966.764771 967.311890,955.975037 
	C967.726868,953.028381 967.565002,949.992004 967.565613,946.996765 
	C967.577820,889.017883 967.574707,831.038940 967.574768,773.060059 
	C967.574768,769.538452 967.574829,766.016846 967.574829,761.933350 
	C972.579834,761.933350 976.197205,761.933289 979.814575,761.933289 
	C1035.794189,761.933289 1091.773804,761.933350 1147.753418,761.933167 
	C1150.419189,761.933167 1153.084961,761.949280 1155.750610,761.927368 
	C1172.264404,761.791504 1179.502319,754.741943 1179.531128,738.098267 
	C1179.626953,682.452026 1179.584595,626.805481 1179.531128,571.159119 
	C1179.528198,568.192810 1179.252930,565.151917 1178.564697,562.274963 
	C1176.432251,553.361389 1170.940796,548.527710 1161.946045,547.567505 
	C1158.646484,547.215332 1155.292603,547.308289 1151.963501,547.306580 
	C1118.309082,547.289612 1084.654663,547.295166 1049.000122,547.294739 
z"/>
<path fill="#414040" opacity="1.000000" stroke="none" 
	d="
M1220.481934,207.897736 
	C1215.959351,209.041779 1211.343750,209.644302 1206.728149,209.645096 
	C939.850403,209.690430 672.972656,209.711044 406.094910,209.597931 
	C394.948730,209.593216 384.972198,211.552826 376.942596,219.870697 
	C370.166138,226.890457 366.546143,235.208786 366.220978,244.946762 
	C366.132080,247.609268 366.203857,250.277206 366.203827,252.942642 
	C366.203613,514.156372 366.203796,775.370056 366.201141,1036.583740 
	C366.201111,1039.582153 366.165283,1042.580688 366.143738,1046.473877 
	C351.904205,1047.346558 337.666992,1047.359375 323.430115,1047.290894 
	C313.481506,1047.243164 304.442474,1044.476562 297.103027,1037.517212 
	C289.830750,1030.621582 285.713165,1022.188416 285.696838,1011.991089 
	C285.678802,1000.733643 285.672150,989.476257 285.774475,976.352173 
	C285.872192,972.486267 285.841736,970.487061 285.841705,968.487854 
	C285.839752,702.894836 285.840057,437.301849 285.840790,171.708862 
	C285.840790,170.042664 285.814850,168.375626 285.856995,166.710403 
	C286.217041,152.489700 292.723236,142.179169 305.174042,135.231186 
	C312.013000,131.414780 319.245453,131.719009 326.553253,131.718842 
	C590.813293,131.712967 855.073364,131.709930 1119.333374,131.731400 
	C1126.324097,131.731964 1133.315430,132.157089 1140.305420,132.125809 
	C1156.281006,132.054321 1172.255981,131.822464 1188.231201,131.655746 
	C1204.319824,132.104797 1221.113159,148.205429 1220.411865,168.232941 
	C1219.958984,181.164856 1220.366699,194.126907 1220.481934,207.897736 
z"/>
<path fill="#8C8B8B" opacity="1.000000" stroke="none" 
	d="
M1187.520752,131.220337 
	C1172.255981,131.822464 1156.281006,132.054321 1140.305420,132.125809 
	C1133.315430,132.157089 1126.324097,131.731964 1119.333374,131.731400 
	C855.073364,131.709930 590.813293,131.712967 326.553253,131.718842 
	C319.245453,131.719009 312.013000,131.414780 305.174042,135.231186 
	C292.723236,142.179169 286.217041,152.489700 285.856995,166.710403 
	C285.814850,168.375626 285.840790,170.042664 285.840790,171.708862 
	C285.840057,437.301849 285.839752,702.894836 285.841705,968.487854 
	C285.841736,970.487061 285.872192,972.486267 285.749451,975.440186 
	C272.645752,976.094299 259.677917,975.885132 246.717834,975.446533 
	C241.748917,975.278442 236.705582,975.039062 231.855316,974.050842 
	C215.741302,970.767944 204.426346,957.194824 203.791458,940.853455 
	C203.688019,938.191162 203.745590,935.522217 203.745575,932.856384 
	C203.744110,655.599792 203.729523,378.343140 203.838303,101.086578 
	C203.840759,94.853050 204.099945,88.195351 206.222656,82.470955 
	C211.420486,68.453773 221.994766,60.601540 237.182907,59.598431 
	C240.170227,59.401131 243.178894,59.506847 246.177719,59.506817 
	C529.432678,59.503796 812.687683,59.494766 1095.942627,59.567867 
	C1101.885620,59.569401 1108.111938,59.562012 1113.715942,61.217911 
	C1128.391724,65.554352 1137.791870,78.702324 1138.189697,94.223030 
	C1138.403076,102.548813 1138.247192,110.884102 1138.255615,119.215103 
	C1138.258911,122.478935 1138.256104,125.742760 1138.256104,129.962051 
	C1155.092651,130.247391 1170.951538,130.516159 1187.520752,131.220337 
z"/>
<path fill="#020202" opacity="1.000000" stroke="none" 
	d="
M1716.161621,575.289185 
	C1696.625244,574.296265 1678.074951,573.244446 1659.836182,568.637512 
	C1615.236206,557.371826 1584.273315,530.378479 1567.543823,487.847778 
	C1549.922241,443.049011 1549.187622,397.323761 1565.838501,352.184296 
	C1583.023193,305.597748 1616.873413,276.698059 1665.312256,265.854340 
	C1703.851562,257.226807 1742.848755,258.063263 1781.482422,264.941772 
	C1823.355103,272.396912 1849.844727,298.370758 1863.737671,337.937622 
	C1864.600952,340.396118 1865.184692,342.952728 1866.243530,346.677643 
	C1835.536743,352.133575 1805.271118,357.511078 1774.669800,362.948212 
	C1773.409058,360.489838 1772.324951,358.511963 1771.361816,356.476898 
	C1763.247314,339.330566 1749.427734,329.879272 1730.873413,328.107910 
	C1721.692749,327.231537 1712.046387,327.140106 1703.075317,328.970673 
	C1680.876709,333.500366 1665.718140,347.150909 1657.903320,368.478516 
	C1650.546753,388.555328 1649.259644,409.466888 1651.051270,430.527161 
	C1651.921265,440.753723 1653.390503,451.097931 1656.118164,460.966064 
	C1664.172485,490.105804 1686.536499,507.041504 1716.905151,508.022003 
	C1742.127197,508.836304 1762.775024,502.866547 1786.162842,487.811584 
	C1786.162842,478.970306 1786.162842,469.779785 1786.162842,459.596619 
	C1765.336182,459.596619 1744.529907,459.596619 1723.031250,459.596619 
	C1723.031250,438.196014 1723.031250,417.763489 1723.031250,396.702942 
	C1771.743042,396.702942 1820.531982,396.702942 1870.132935,396.702942 
	C1870.288940,398.744354 1870.599487,400.927124 1870.601074,403.110168 
	C1870.630615,441.425415 1870.607788,479.740692 1870.642700,518.055969 
	C1870.646729,522.417114 1870.752808,526.114014 1866.064087,529.099548 
	C1839.015259,546.322754 1811.296265,561.891174 1779.585693,569.017578 
	C1758.986206,573.646973 1738.056885,574.580078 1716.161621,575.289185 
z"/>
<path fill="#010101" opacity="1.000000" stroke="none" 
	d="
M2216.000488,501.279907 
	C2253.235840,501.279877 2289.471191,501.279877 2326.229736,501.279877 
	C2326.229736,524.315063 2326.229736,546.521667 2326.229736,569.411987 
	C2239.783447,569.411987 2153.044434,569.411987 2065.812256,569.411987 
	C2065.812256,468.325867 2065.812256,367.266205 2065.812256,265.743164 
	C2151.111816,265.743164 2235.969482,265.743164 2321.500488,265.743164 
	C2321.500488,286.722900 2321.500488,307.848999 2321.500488,329.935974 
	C2268.500488,329.935974 2215.377197,329.935974 2161.789062,329.935974 
	C2161.789062,346.693207 2161.789062,362.496246 2161.789062,378.905396 
	C2211.166992,378.905396 2260.067871,378.905396 2309.664062,378.905396 
	C2309.664062,399.640076 2309.664062,419.787231 2309.664062,440.950256 
	C2260.710938,440.950256 2211.603271,440.950256 2161.904297,440.950256 
	C2161.904297,461.399597 2161.904297,480.845459 2161.904297,501.279907 
	C2179.827881,501.279907 2197.414307,501.279907 2216.000488,501.279907 
z"/>
<path fill="#020202" opacity="1.000000" stroke="none" 
	d="
M2669.707275,330.419800 
	C2653.593994,315.207397 2635.169922,315.073853 2616.000244,320.048615 
	C2612.655762,320.916504 2609.419678,323.332977 2606.828369,325.772583 
	C2596.187256,335.791382 2597.703613,349.633759 2610.699707,356.278717 
	C2617.696533,359.856140 2625.581299,361.875427 2633.242432,363.942322 
	C2658.582031,370.778778 2684.113525,376.928375 2709.332031,384.175018 
	C2718.492188,386.807251 2727.261963,391.254059 2735.724854,395.780212 
	C2783.964844,421.580536 2790.197266,473.474396 2772.198486,511.699127 
	C2758.215088,541.396667 2733.943848,558.683533 2703.188721,567.835754 
	C2685.816650,573.005310 2667.882812,574.779480 2649.905273,575.042908 
	C2626.589355,575.384460 2603.415283,573.853333 2580.512695,568.486694 
	C2535.681396,557.981506 2511.945801,528.061523 2502.035645,484.996704 
	C2500.929443,480.190002 2500.473633,475.233765 2499.491943,468.900848 
	C2530.239502,467.012451 2560.195557,465.172638 2590.366699,463.319641 
	C2591.764160,469.103912 2592.689941,473.970093 2594.121338,478.682709 
	C2600.464600,499.570282 2614.375244,511.620880 2636.160645,514.546753 
	C2645.899658,515.854797 2655.563721,515.645935 2664.715820,512.175903 
	C2669.866211,510.223206 2675.062988,507.340240 2679.069824,503.617950 
	C2691.976318,491.628204 2691.298340,473.815063 2677.451416,462.826660 
	C2672.616943,458.990387 2666.705322,455.938324 2660.795166,454.142578 
	C2645.867676,449.606964 2630.537842,446.398071 2615.600342,441.891693 
	C2599.401855,437.004944 2583.276123,431.743256 2567.493164,425.670837 
	C2559.520020,422.603180 2551.996094,417.932800 2544.916016,413.049103 
	C2499.082275,381.433716 2502.785645,320.272949 2539.389404,288.953125 
	C2558.316895,272.757874 2580.896729,265.453491 2605.041016,262.428925 
	C2632.608643,258.975464 2660.211182,258.865295 2687.638428,264.008545 
	C2709.592041,268.125305 2730.001221,275.627258 2745.887939,292.265533 
	C2761.235840,308.339325 2768.103760,328.032043 2770.838379,350.920471 
	C2740.432129,352.665649 2710.733398,354.370239 2682.713623,355.978455 
	C2678.110352,346.791504 2674.147949,338.882965 2669.707275,330.419800 
z"/>
<path fill="#020101" opacity="1.000000" stroke="none" 
	d="
M1870.118896,1074.349121 
	C1871.024048,1076.965942 1871.689819,1078.790161 1872.658691,1081.445068 
	C1839.126099,1081.445068 1806.389038,1081.445068 1772.680420,1081.445068 
	C1767.683838,1065.584229 1762.528564,1049.219482 1757.262695,1032.503906 
	C1720.959717,1032.503906 1684.722900,1032.503906 1647.912354,1032.503906 
	C1643.034058,1048.671509 1638.143433,1064.880127 1633.101318,1081.590576 
	C1601.017700,1081.590576 1568.784546,1081.590576 1535.223145,1081.590576 
	C1574.073120,980.155396 1612.772949,879.112183 1651.585449,777.774780 
	C1686.546509,777.774780 1721.088257,777.774780 1756.511230,777.774780 
	C1794.238159,876.205688 1832.058838,974.881104 1870.118896,1074.349121 
M1713.554565,889.459778 
	C1710.227661,879.173706 1706.900757,868.887634 1702.913940,856.561157 
	C1691.254150,894.191772 1679.865967,929.601624 1669.340088,965.691406 
	C1692.630737,965.691406 1714.480713,965.691406 1737.152344,965.691406 
	C1729.289917,940.391724 1721.616089,915.699097 1713.554565,889.459778 
z"/>
<path fill="#010202" opacity="1.000000" stroke="none" 
	d="
M2516.042969,780.256714 
	C2517.821777,778.610046 2519.544678,777.362061 2521.264893,777.365479 
	C2577.893799,777.476929 2634.528076,777.346558 2691.146484,778.225159 
	C2702.561768,778.402344 2714.326660,781.269409 2725.219238,784.982605 
	C2752.501221,794.283020 2769.334717,813.775635 2776.086670,841.794495 
	C2780.770264,861.229187 2780.846924,880.784241 2775.979492,900.161194 
	C2767.358643,934.478210 2744.719971,954.808289 2711.153076,963.812256 
	C2695.274414,968.071533 2678.968994,968.949219 2662.647217,969.249634 
	C2649.326172,969.494873 2635.996826,969.299683 2622.671143,969.299744 
	C2619.432129,969.299744 2616.193115,969.299744 2612.318604,969.299744 
	C2612.318604,1007.175354 2612.318604,1044.030396 2612.318604,1081.487549 
	C2580.176025,1081.487549 2548.702148,1081.487549 2515.985840,1081.487549 
	C2515.985840,981.486145 2515.985840,881.362488 2516.042969,780.256714 
M2682.230713,857.290710 
	C2677.078369,846.633789 2667.773438,841.297791 2656.758545,840.532349 
	C2642.275879,839.525940 2627.670654,840.285278 2612.635986,840.285278 
	C2612.635986,862.196960 2612.635986,884.281006 2612.635986,907.297546 
	C2622.063965,907.297546 2630.987793,907.533630 2639.891357,907.214844 
	C2645.856201,907.001221 2651.881592,906.439453 2657.723633,905.260071 
	C2669.741699,902.833984 2679.469482,897.025635 2684.046875,884.874878 
	C2687.383057,876.019104 2686.671875,867.262146 2682.230713,857.290710 
z"/>
<path fill="#010101" opacity="1.000000" stroke="none" 
	d="
M2082.013672,777.277954 
	C2108.631836,777.277954 2134.253906,777.277954 2160.999023,777.277954 
	C2160.999023,854.027771 2160.999023,930.124573 2160.999023,1007.102661 
	C2211.306885,1007.102661 2260.499023,1007.102661 2310.319824,1007.102661 
	C2310.319824,1032.438965 2310.319824,1056.892212 2310.319824,1081.722046 
	C2228.889648,1081.722046 2147.711670,1081.722046 2066.014648,1081.722046 
	C2066.014648,980.363586 2066.014648,879.290344 2066.014648,777.277954 
	C2071.213135,777.277954 2076.115234,777.277954 2082.013672,777.277954 
z"/>
<path fill="#F53939" opacity="1.000000" stroke="none" 
	d="
M2100.287598,605.996826 
	C2122.217285,605.996887 2143.202148,606.499512 2164.150879,605.845581 
	C2182.468750,605.273743 2201.342529,621.320557 2200.478027,642.530640 
	C2199.732910,660.806641 2199.921631,679.148254 2200.436768,697.440125 
	C2200.947754,715.581360 2185.739258,733.054810 2165.203125,733.114685 
	C2141.571533,733.183533 2117.937988,733.301880 2094.308350,733.075623 
	C2074.243896,732.883484 2059.256592,715.885254 2059.599609,697.950378 
	C2059.949951,679.650757 2060.346924,661.308228 2059.502686,643.040894 
	C2058.481201,620.936951 2078.149170,604.372314 2096.332275,605.985657 
	C2097.322998,606.073547 2098.328369,605.996887 2100.287598,605.996826 
z"/>
<path fill="#4B4A4A" opacity="1.000000" stroke="none" 
	d="
M325.101685,1330.780518 
	C324.607269,1301.751343 324.607269,1273.491455 324.607269,1244.634033 
	C330.413147,1244.634033 335.608765,1244.634033 342.217773,1244.634033 
	C350.133392,1268.029419 358.287964,1292.130859 367.227844,1318.553467 
	C376.114594,1292.508057 384.248413,1268.669189 392.503113,1244.476196 
	C397.545349,1244.476196 402.456482,1244.476196 408.019714,1244.476196 
	C408.019714,1273.360474 408.019714,1302.171631 408.019714,1331.563232 
	C404.930908,1331.563232 401.795319,1331.563232 398.054138,1331.563232 
	C398.054138,1308.950806 398.054138,1286.381714 398.054138,1263.885010 
	C397.142273,1263.778442 396.821838,1263.684692 396.517090,1263.721313 
	C396.226837,1263.756470 395.765106,1263.860840 395.698639,1264.048096 
	C387.709534,1286.565430 379.750214,1309.093384 371.744141,1331.748535 
	C368.177643,1331.748535 364.938629,1331.748535 361.265686,1331.748535 
	C353.382172,1308.796997 345.570343,1286.054199 337.758545,1263.311401 
	C337.137421,1263.445923 336.516327,1263.580444 335.895203,1263.714966 
	C335.895203,1286.174072 335.895203,1308.633179 335.895203,1332.074829 
	C331.956879,1331.874146 328.776489,1331.712036 325.101685,1330.780518 
z"/>
<path fill="#4C4B4B" opacity="1.000000" stroke="none" 
	d="
M1717.848877,1279.995117 
	C1712.919434,1297.698120 1708.160645,1314.604736 1703.331055,1331.762817 
	C1699.339111,1331.762817 1695.745972,1331.762817 1691.235229,1331.762817 
	C1687.447021,1317.527222 1683.617676,1303.149414 1679.795410,1288.769653 
	C1675.955078,1274.321167 1672.121460,1259.870972 1668.087646,1244.678589 
	C1672.113892,1244.678589 1675.597900,1244.678589 1680.056396,1244.678589 
	C1685.477173,1267.932861 1690.966553,1291.481079 1696.455811,1315.029175 
	C1696.867065,1315.125977 1697.278198,1315.222778 1697.689331,1315.319458 
	C1704.370850,1291.677612 1711.052246,1268.035645 1717.749756,1244.336914 
	C1722.685181,1244.336914 1726.958496,1244.336914 1732.088867,1244.336914 
	C1738.501221,1267.759033 1744.895264,1291.113770 1751.751343,1316.156372 
	C1757.776855,1291.734863 1763.515259,1268.477051 1769.386841,1244.679688 
	C1773.084717,1244.679688 1776.531250,1244.679688 1781.039307,1244.679688 
	C1773.050781,1273.945801 1765.207764,1302.679321 1757.284424,1331.707153 
	C1753.575562,1331.707153 1750.328125,1331.707153 1745.774170,1331.707153 
	C1739.065674,1307.657593 1732.236084,1283.173706 1725.406372,1258.689697 
	C1724.944458,1258.618408 1724.482544,1258.546997 1724.020630,1258.475708 
	C1722.020264,1265.383301 1720.019775,1272.291016 1717.848877,1279.995117 
z"/>
<path fill="#4B4A4A" opacity="1.000000" stroke="none" 
	d="
M2226.240723,1333.362305 
	C2206.257324,1331.730713 2192.811523,1322.533447 2187.012207,1303.780273 
	C2183.689209,1293.033325 2183.883301,1282.122559 2187.430420,1271.370117 
	C2193.767090,1252.161011 2209.907715,1241.696777 2230.560547,1243.372070 
	C2250.722412,1245.007690 2265.233643,1258.527710 2268.117188,1278.492188 
	C2270.402100,1294.312012 2267.933838,1308.985474 2256.191895,1322.299438 
	C2261.001221,1325.266724 2265.350098,1327.950073 2270.162354,1330.919189 
	C2269.098877,1333.355957 2268.103271,1335.638062 2267.221191,1337.659546 
	C2266.274902,1337.721924 2265.898438,1337.861206 2265.627686,1337.747803 
	C2259.287598,1335.094482 2253.133789,1330.942017 2246.577393,1330.161621 
	C2240.295410,1329.413696 2233.597412,1332.161743 2226.240723,1333.362305 
M2229.249268,1310.258545 
	C2230.882568,1309.736938 2232.843018,1308.365845 2234.090820,1308.846069 
	C2238.618896,1310.588501 2242.908203,1312.951172 2247.047607,1314.963135 
	C2258.726562,1306.599731 2258.778809,1279.615601 2252.931396,1268.935669 
	C2246.841553,1257.812256 2237.534424,1252.867065 2225.085693,1253.413574 
	C2212.849854,1253.950562 2203.213135,1260.724365 2199.322266,1272.006836 
	C2195.635010,1282.699341 2195.590088,1293.599731 2199.459961,1304.260498 
	C2205.081543,1319.747314 2220.074951,1326.342041 2237.232178,1320.377686 
	C2234.400879,1318.891479 2231.904297,1318.074463 2230.126953,1316.463989 
	C2229.046631,1315.484863 2229.076416,1313.280762 2229.249268,1310.258545 
z"/>
<path fill="#4B4A4A" opacity="1.000000" stroke="none" 
	d="
M1328.180176,1295.998291 
	C1328.180176,1308.288330 1328.180176,1319.578979 1328.180176,1330.735474 
	C1316.839111,1333.092529 1316.831787,1333.097412 1310.903442,1324.239990 
	C1299.784912,1307.628052 1288.687866,1291.001831 1277.551147,1274.402222 
	C1275.749023,1271.715942 1273.788574,1269.135620 1270.424072,1264.448120 
	C1270.424072,1288.165649 1270.424072,1309.531006 1270.424072,1331.611084 
	C1266.303833,1331.827759 1263.151978,1331.993652 1259.326172,1332.194824 
	C1259.326172,1302.719482 1259.326172,1273.901733 1259.326172,1244.556641 
	C1263.053955,1244.556641 1266.599365,1244.556641 1271.076538,1244.556641 
	C1285.336060,1265.818237 1299.943604,1287.598633 1315.275146,1310.458740 
	C1318.281860,1302.596558 1316.656738,1295.458008 1316.925293,1288.552856 
	C1317.210205,1281.230957 1316.989380,1273.889404 1316.989380,1266.556519 
	C1316.989380,1259.281250 1316.989258,1252.005981 1316.989258,1244.391846 
	C1320.910400,1244.391846 1323.860840,1244.391846 1328.180054,1244.391846 
	C1328.180054,1261.243408 1328.180054,1278.121094 1328.180176,1295.998291 
z"/>
<path fill="#4B4A4A" opacity="1.000000" stroke="none" 
	d="
M1023.159912,1302.872192 
	C1025.134766,1305.510986 1026.667480,1307.552368 1029.654785,1311.530884 
	C1029.654785,1287.964478 1029.654785,1266.616455 1029.654785,1244.568726 
	C1033.791748,1244.347900 1036.947388,1244.179443 1040.773438,1243.975098 
	C1040.773438,1273.422485 1040.773438,1302.220703 1040.773438,1331.584351 
	C1037.116699,1331.584351 1033.587769,1331.584351 1028.877686,1331.584351 
	C1014.657288,1310.390259 999.958557,1288.483154 985.259827,1266.575928 
	C984.625549,1266.746704 983.991333,1266.917480 983.357056,1267.088135 
	C983.357056,1288.463867 983.357056,1309.839478 983.357056,1331.661865 
	C979.095581,1331.661865 975.942993,1331.661865 972.334229,1331.661865 
	C972.334229,1302.479614 972.334229,1273.672363 972.334229,1244.449707 
	C976.347961,1244.449707 979.896362,1244.449707 984.060181,1244.449707 
	C996.848328,1263.578491 1009.783142,1282.926636 1023.159912,1302.872192 
z"/>
<path fill="#4A4949" opacity="1.000000" stroke="none" 
	d="
M568.833069,1303.208008 
	C574.540405,1311.837646 579.806396,1319.910767 585.040894,1328.004395 
	C585.557373,1328.803101 585.880493,1329.726929 586.681641,1331.406738 
	C581.845337,1331.406738 577.491211,1331.406738 572.661560,1331.406738 
	C568.354431,1324.726196 563.941895,1317.711304 559.359924,1310.808838 
	C547.530212,1292.987915 544.835754,1291.776245 521.924622,1294.192383 
	C521.924622,1300.247314 521.924561,1306.460815 521.924561,1312.674438 
	C521.924561,1318.634888 521.924622,1324.595215 521.924622,1331.620728 
	C518.140991,1331.811035 514.715088,1331.983398 510.659546,1332.187378 
	C510.659546,1302.768433 510.659546,1274.008423 510.659546,1244.790527 
	C527.332397,1244.790527 543.879944,1243.989136 560.305664,1245.058228 
	C572.251526,1245.835693 579.162720,1254.051514 580.243896,1265.084595 
	C581.426208,1277.148926 576.305786,1285.420776 564.810425,1289.997070 
	C562.707825,1290.833984 560.590393,1291.633789 558.956604,1292.266113 
	C562.157959,1295.795166 565.270386,1299.226196 568.833069,1303.208008 
M558.711487,1255.479858 
	C546.606506,1252.687622 534.503906,1254.653809 522.324646,1254.122192 
	C522.324646,1264.382690 522.324646,1273.264038 522.324646,1282.520020 
	C533.291687,1282.520020 543.839844,1282.807495 554.362915,1282.417847 
	C561.252747,1282.162842 566.564331,1278.781616 568.019348,1271.515503 
	C569.417664,1264.532715 567.058594,1259.081177 558.711487,1255.479858 
z"/>
<path fill="#4A4949" opacity="1.000000" stroke="none" 
	d="
M2135.217773,1276.166260 
	C2129.622803,1286.280273 2129.195068,1286.613037 2114.345215,1292.559204 
	C2127.375977,1303.082275 2133.929443,1317.803833 2143.506348,1331.806763 
	C2137.772217,1331.806763 2133.520020,1331.806763 2128.935547,1331.806763 
	C2124.429932,1324.825073 2119.432129,1318.124756 2115.541260,1310.833618 
	C2107.545654,1295.850708 2095.710449,1290.092285 2078.318115,1294.436768 
	C2078.318115,1306.204468 2078.318115,1318.407104 2078.318115,1331.620728 
	C2074.097412,1331.815552 2070.669434,1331.973877 2066.636719,1332.160034 
	C2066.636719,1302.666992 2066.636719,1273.869873 2066.636719,1244.697998 
	C2083.240723,1244.697998 2099.550781,1243.638550 2115.657227,1244.995605 
	C2131.785156,1246.354858 2137.891113,1256.990234 2135.217773,1276.166260 
M2121.970215,1276.467041 
	C2126.658203,1264.505493 2123.368896,1256.152954 2111.922119,1254.862793 
	C2100.887207,1253.619141 2089.602539,1254.593628 2078.295898,1254.593628 
	C2078.295898,1264.331543 2078.295898,1273.217407 2078.295898,1282.210327 
	C2089.898193,1282.210327 2101.104004,1282.514526 2112.272461,1282.006592 
	C2115.239502,1281.871460 2118.093262,1279.242676 2121.970215,1276.467041 
z"/>
<path fill="#4B4A4A" opacity="1.000000" stroke="none" 
	d="
M1441.410645,1243.629517 
	C1449.730835,1244.451172 1457.611328,1244.258545 1464.677856,1246.562256 
	C1474.219604,1249.672852 1479.390137,1257.333008 1480.278320,1268.727417 
	C1476.811035,1269.001099 1473.723389,1269.244873 1470.847534,1269.472046 
	C1468.571289,1265.537476 1467.096069,1261.696289 1464.536621,1258.819702 
	C1458.303955,1251.814575 1439.204224,1251.356201 1432.005005,1257.629883 
	C1425.580811,1263.228394 1426.262451,1272.179810 1434.051636,1275.607910 
	C1440.379395,1278.392944 1447.385498,1279.610107 1454.037598,1281.692627 
	C1459.724365,1283.473022 1465.717651,1284.778442 1470.906738,1287.547241 
	C1485.292725,1295.223999 1487.298706,1313.290161 1475.449097,1324.532471 
	C1462.287476,1337.019287 1433.703125,1336.174683 1421.451660,1322.767334 
	C1416.171509,1316.989258 1412.848877,1310.298584 1413.779175,1301.612671 
	C1416.934082,1301.612671 1419.822388,1301.612671 1423.014160,1301.612671 
	C1423.404053,1302.261230 1424.208252,1303.020264 1424.320312,1303.870483 
	C1426.544922,1320.756226 1445.765259,1326.227051 1460.613281,1321.332764 
	C1467.437256,1319.083618 1472.014404,1313.251099 1471.725586,1307.472656 
	C1471.387451,1300.707153 1466.631226,1297.688477 1460.970459,1295.919678 
	C1454.315918,1293.840454 1447.510010,1292.250000 1440.828125,1290.252319 
	C1436.703491,1289.019043 1432.506836,1287.791260 1428.660767,1285.910400 
	C1420.893188,1282.111938 1416.171387,1275.842041 1416.353516,1266.954590 
	C1416.530151,1258.329346 1420.562744,1251.525513 1428.373169,1247.655640 
	C1432.168579,1245.775024 1436.512695,1245.001709 1441.410645,1243.629517 
z"/>
<path fill="#4B4A4A" opacity="1.000000" stroke="none" 
	d="
M242.277313,1267.789795 
	C244.736252,1253.052612 251.238922,1246.266479 264.585724,1243.981323 
	C273.259674,1242.496216 281.861420,1242.859009 290.141357,1246.088867 
	C300.075012,1249.963867 304.939026,1256.953613 305.754333,1268.949341 
	C302.615753,1269.091797 299.492950,1269.233398 296.677460,1269.361206 
	C289.187012,1254.502319 281.390686,1250.707397 265.739166,1254.098511 
	C263.216125,1254.645142 260.586029,1255.714600 258.537903,1257.251953 
	C251.412735,1262.599976 252.158813,1272.187378 260.366241,1275.733765 
	C266.716766,1278.477661 273.711761,1279.707886 280.376007,1281.755127 
	C285.761963,1283.409668 291.412872,1284.633423 296.369019,1287.174316 
	C310.935730,1294.642212 313.437012,1312.543457 301.904419,1324.074341 
	C288.575073,1337.401367 258.743256,1336.164429 246.523499,1321.777710 
	C241.849976,1316.275391 240.238083,1311.740845 239.650909,1301.636475 
	C242.766220,1301.461792 245.888290,1301.286743 249.196411,1301.101196 
	C250.032852,1303.420166 250.817810,1305.212036 251.328857,1307.078857 
	C253.714355,1315.792725 259.941650,1320.143188 268.264343,1322.134155 
	C274.925903,1323.727905 281.504639,1323.408813 287.842072,1320.768677 
	C294.144775,1318.142944 298.160034,1312.560913 297.726562,1307.110840 
	C297.229340,1300.859253 292.855408,1297.809814 287.571869,1296.114990 
	C280.617920,1293.884399 273.469757,1292.266602 266.468811,1290.172363 
	C262.344757,1288.938599 258.164520,1287.654785 254.327042,1285.752930 
	C247.315567,1282.277832 243.114624,1276.535889 242.277313,1267.789795 
z"/>
<path fill="#4B4B4B" opacity="1.000000" stroke="none" 
	d="
M1657.729492,1327.347656 
	C1656.220825,1335.268799 1650.835449,1330.856201 1646.092285,1332.739624 
	C1646.092285,1318.820435 1646.092285,1305.720825 1646.092285,1292.039307 
	C1630.418213,1292.039307 1615.926392,1292.039307 1600.262695,1292.039307 
	C1600.262695,1305.048096 1600.262695,1318.173218 1600.262695,1331.697266 
	C1595.881592,1331.697266 1592.658569,1331.697266 1588.782593,1331.697266 
	C1588.782593,1302.911499 1588.782593,1274.133789 1588.782593,1244.612427 
	C1590.597412,1244.424805 1592.463013,1244.118164 1594.334839,1244.073120 
	C1595.918335,1244.035034 1597.509033,1244.299561 1599.889771,1244.495239 
	C1599.889771,1256.429077 1599.889771,1267.958496 1599.889771,1279.223999 
	C1608.018677,1281.557739 1635.088013,1281.846924 1645.557617,1279.774414 
	C1645.557617,1268.419067 1645.557617,1256.883911 1645.557617,1244.698975 
	C1649.772095,1244.698975 1653.204712,1244.698975 1657.739868,1244.698975 
	C1657.739868,1272.019409 1657.739868,1299.215820 1657.729492,1327.347656 
z"/>
<path fill="#4D4B4B" opacity="1.000000" stroke="none" 
	d="
M1100.127197,1244.033325 
	C1104.991821,1243.575684 1106.251709,1245.487305 1106.183350,1249.247803 
	C1106.025757,1257.896240 1106.139282,1266.549683 1106.142212,1275.201050 
	C1106.143311,1278.392822 1106.142456,1281.584473 1106.142456,1287.067627 
	C1111.029175,1282.319824 1114.280273,1279.201172 1117.486816,1276.037598 
	C1125.777222,1267.858398 1134.440796,1260.011353 1142.199341,1251.354126 
	C1148.162964,1244.699707 1154.716187,1242.402466 1163.151123,1244.667847 
	C1151.871460,1256.173584 1140.628662,1267.641846 1128.831909,1279.675049 
	C1141.427368,1296.864502 1153.725342,1313.647827 1166.540771,1331.137451 
	C1157.175903,1333.561646 1151.000122,1332.397217 1145.892090,1324.015137 
	C1138.468872,1311.833984 1129.633789,1300.513306 1120.525757,1287.583496 
	C1116.126343,1291.807129 1111.666504,1295.546875 1107.955078,1299.921509 
	C1106.491821,1301.646240 1106.285156,1304.776123 1106.219727,1307.284790 
	C1106.012817,1315.205078 1106.143311,1323.134155 1106.143311,1331.590576 
	C1101.958008,1331.590576 1098.538330,1331.590576 1094.256836,1331.590576 
	C1094.256836,1326.853271 1094.256836,1322.589966 1094.256836,1318.326538 
	C1094.256958,1296.032593 1094.236328,1273.738525 1094.279053,1251.444580 
	C1094.285767,1247.980225 1093.160156,1243.565918 1100.127197,1244.033325 
z"/>
<path fill="#4B4A4A" opacity="1.000000" stroke="none" 
	d="
M826.327332,1305.771973 
	C821.920349,1299.512939 817.916443,1293.844727 813.483093,1287.568481 
	C809.829712,1291.072998 806.914429,1294.193970 803.657410,1296.904175 
	C800.275818,1299.718018 799.104980,1303.054077 799.242737,1307.383911 
	C799.494568,1315.300659 799.314331,1323.231201 799.314331,1331.635010 
	C795.212463,1331.635010 792.021301,1331.635010 788.212280,1331.635010 
	C788.212280,1302.893555 788.212280,1274.111572 788.212280,1244.681641 
	C791.578674,1244.681641 794.973389,1244.681641 799.184875,1244.681641 
	C799.184875,1257.908203 799.184875,1270.772461 799.184875,1285.291626 
	C802.201843,1283.255615 804.118896,1282.336060 805.559998,1280.929077 
	C815.319092,1271.400635 825.442322,1262.183960 834.508057,1252.027588 
	C840.732300,1245.054688 847.398315,1242.326782 857.659302,1244.971436 
	C845.600708,1256.659546 834.047424,1267.857788 821.897644,1279.634277 
	C834.431702,1296.829590 846.850403,1313.866577 859.933167,1331.814697 
	C854.173523,1331.814697 849.924133,1331.814697 844.782288,1331.814697 
	C838.968872,1323.618286 832.849670,1314.990601 826.327332,1305.771973 
z"/>
<path fill="#4A4444" opacity="1.000000" stroke="none" 
	d="
M2000.453125,1322.035522 
	C2017.305420,1322.050293 2033.197510,1322.050293 2049.516113,1322.050293 
	C2049.516113,1325.565186 2049.516113,1328.123413 2049.516113,1331.402832 
	C2028.274048,1331.402832 2006.841309,1331.402832 1984.763672,1331.402832 
	C1984.763672,1302.751221 1984.763672,1274.014771 1984.763672,1244.664062 
	C2005.630493,1244.664062 2026.369629,1244.664062 2047.517944,1244.664062 
	C2047.517944,1247.643066 2047.517944,1250.207153 2047.517944,1253.779785 
	C2030.837158,1253.779785 2014.028442,1253.779785 1996.592285,1253.779785 
	C1996.592285,1263.517944 1996.592285,1272.265991 1996.592285,1281.901489 
	C2012.251099,1281.901489 2027.738647,1281.901489 2043.778076,1281.901489 
	C2043.778076,1285.543091 2043.778076,1288.328613 2043.778076,1291.962646 
	C2028.210205,1291.962646 2012.708984,1291.962646 1996.067017,1291.962646 
	C1996.067017,1301.611328 1995.965088,1310.464844 1996.217163,1319.308228 
	C1996.243774,1320.242676 1998.351074,1321.118042 2000.453125,1322.035522 
z"/>
<path fill="#4A4444" opacity="1.000000" stroke="none" 
	d="
M1803.942383,1266.113403 
	C1803.942383,1271.667725 1803.942383,1276.270142 1803.942383,1281.741455 
	C1820.053711,1281.741455 1835.535156,1281.741455 1851.702393,1281.741455 
	C1851.984497,1285.348022 1852.202637,1288.137573 1852.489502,1291.806396 
	C1836.419067,1291.806396 1820.904663,1291.806396 1804.674683,1291.806396 
	C1804.674683,1302.030518 1804.674683,1311.444336 1804.674683,1321.891846 
	C1822.047241,1321.891846 1839.507202,1321.891846 1857.448730,1321.891846 
	C1857.448730,1325.673950 1857.448730,1328.439087 1857.448730,1331.664429 
	C1835.889404,1331.664429 1814.703369,1331.664429 1792.820312,1331.664429 
	C1792.820312,1302.874390 1792.820312,1274.134888 1792.820312,1244.722168 
	C1813.504883,1244.722168 1834.240112,1244.722168 1855.582397,1244.722168 
	C1855.723999,1247.504883 1855.854004,1250.060425 1856.036865,1253.655518 
	C1838.923218,1253.655518 1822.132446,1253.655518 1803.942505,1253.655518 
	C1803.942505,1258.147705 1803.942505,1261.654541 1803.942383,1266.113403 
z"/>
<path fill="#4A4444" opacity="1.000000" stroke="none" 
	d="
M672.126587,1319.779785 
	C672.126587,1294.267700 672.126587,1269.726440 672.126587,1244.624756 
	C693.439392,1244.624756 713.918030,1244.624756 735.212158,1244.624756 
	C735.486816,1247.231689 735.778931,1250.004395 736.183777,1253.847412 
	C718.751221,1253.847412 701.945801,1253.847412 684.553589,1253.847412 
	C684.553589,1263.594482 684.553589,1272.343384 684.553589,1281.966187 
	C700.327148,1281.966187 715.819580,1281.966187 731.818604,1281.966187 
	C731.818604,1285.599243 731.818604,1288.379517 731.818604,1292.024536 
	C716.128357,1292.024536 700.631775,1292.024536 684.546387,1292.024536 
	C684.546387,1302.276123 684.546387,1311.690063 684.546387,1321.815186 
	C702.044128,1321.815186 719.232361,1321.815186 737.143677,1321.815186 
	C737.518616,1325.199463 737.825745,1327.971680 738.213013,1331.467285 
	C716.168457,1331.467285 694.730530,1331.467285 672.126587,1331.467285 
	C672.126587,1327.840454 672.126587,1324.295654 672.126587,1319.779785 
z"/>
<path fill="#494848" opacity="1.000000" stroke="none" 
	d="
M2342.492676,1295.622559 
	C2342.515625,1278.118896 2342.515625,1261.564209 2342.515625,1244.539551 
	C2346.683350,1244.539551 2349.867188,1244.539551 2353.697754,1244.539551 
	C2353.906494,1247.048706 2354.292480,1249.602539 2354.302979,1252.157959 
	C2354.362305,1266.457275 2354.497803,1280.759766 2354.246826,1295.054932 
	C2354.148438,1300.656494 2353.535645,1306.327881 2352.416504,1311.816284 
	C2350.182861,1322.771729 2342.643311,1329.229370 2332.273926,1331.583984 
	C2325.948730,1333.020386 2319.034424,1333.174561 2312.563232,1332.404907 
	C2295.288086,1330.349976 2286.575195,1321.614258 2285.914062,1304.514282 
	C2285.145508,1284.638672 2285.734619,1264.710571 2285.734619,1244.428101 
	C2289.232422,1244.428101 2292.473633,1244.428101 2296.792236,1244.428101 
	C2296.792236,1249.546997 2296.725586,1254.438965 2296.804688,1259.328369 
	C2297.046143,1274.279907 2296.776611,1289.269043 2297.793945,1304.169312 
	C2298.644043,1316.621216 2306.105957,1322.080811 2319.619873,1322.037720 
	C2334.045166,1321.991577 2340.516602,1316.677856 2342.045166,1303.540527 
	C2342.313965,1301.232300 2342.334473,1298.895386 2342.492676,1295.622559 
z"/>
<path fill="#4B4B4B" opacity="1.000000" stroke="none" 
	d="
M427.156219,1308.965942 
	C435.759247,1286.955688 444.039368,1265.645996 452.328552,1244.312988 
	C456.573181,1244.312988 460.174622,1244.312988 464.487549,1244.312988 
	C476.406555,1273.042725 488.336548,1301.799072 500.643372,1331.463623 
	C496.021729,1331.463623 492.258881,1331.463623 487.491791,1331.463623 
	C484.272736,1323.531372 480.809265,1314.996826 477.146484,1305.971191 
	C465.316742,1305.971191 453.440948,1305.971191 440.512421,1305.971191 
	C437.378265,1314.112549 434.083038,1322.672363 430.632324,1331.635986 
	C426.716156,1331.635986 422.902588,1331.635986 418.446136,1331.635986 
	C421.398346,1323.902832 424.115845,1316.784668 427.156219,1308.965942 
M451.780548,1274.732300 
	C449.377319,1281.157715 446.974060,1287.583130 444.272888,1294.805176 
	C454.090820,1294.805176 462.796021,1294.805176 472.902039,1294.805176 
	C468.058746,1281.776001 463.563141,1269.682129 458.455902,1255.942993 
	C455.975342,1262.818481 454.094116,1268.032715 451.780548,1274.732300 
z"/>
<path fill="#4B4B4B" opacity="1.000000" stroke="none" 
	d="
M2436.431152,1309.346313 
	C2439.611572,1317.086182 2442.511719,1324.114258 2445.663086,1331.750854 
	C2440.969971,1331.750854 2437.054199,1331.750854 2432.520508,1331.750854 
	C2429.130371,1323.281738 2425.707764,1314.731201 2422.172119,1305.898193 
	C2409.941895,1305.898193 2398.070312,1305.898193 2385.410156,1305.898193 
	C2382.202148,1314.388550 2378.947510,1323.002441 2375.629639,1331.783813 
	C2371.737793,1331.783813 2368.161377,1331.783813 2363.316650,1331.783813 
	C2374.732422,1302.401855 2385.861572,1273.757080 2397.177734,1244.631836 
	C2401.149414,1244.631836 2405.005127,1244.631836 2409.624268,1244.631836 
	C2418.385010,1265.769287 2427.268066,1287.201904 2436.431152,1309.346313 
M2401.011475,1262.514404 
	C2397.258545,1272.980835 2393.505615,1283.447144 2389.441650,1294.780884 
	C2399.451416,1295.423584 2408.327148,1296.155884 2417.896240,1294.337646 
	C2412.938477,1281.336182 2408.309570,1269.196899 2403.090820,1255.510620 
	C2402.208252,1258.634033 2401.851318,1259.896484 2401.011475,1262.514404 
z"/>
<path fill="#474040" opacity="1.000000" stroke="none" 
	d="
M1186.176758,1332.099365 
	C1182.938354,1332.099243 1180.682251,1332.099243 1177.921021,1332.099243 
	C1177.921021,1302.500244 1177.921021,1273.750366 1177.921021,1244.553345 
	C1198.888184,1244.553345 1219.373413,1244.553345 1240.280029,1244.553345 
	C1240.433105,1247.581177 1240.563110,1250.154175 1240.745117,1253.754395 
	C1223.590820,1253.754395 1206.778198,1253.754395 1189.365234,1253.754395 
	C1189.365234,1263.555542 1189.365234,1272.354004 1189.365234,1281.922607 
	C1205.257202,1281.922607 1220.789185,1281.922607 1237.030762,1281.922607 
	C1237.262207,1285.395874 1237.446411,1288.158569 1237.685547,1291.745850 
	C1221.500854,1291.745850 1205.952148,1291.745850 1189.578613,1291.745850 
	C1189.578613,1301.894043 1189.578613,1311.305054 1189.578613,1321.819824 
	C1206.852417,1321.819824 1224.298096,1321.819824 1242.250000,1321.819824 
	C1242.250000,1325.679810 1242.250000,1328.456177 1242.250000,1332.099487 
	C1223.668457,1332.099487 1205.413696,1332.099487 1186.176758,1332.099365 
z"/>
<path fill="#4B4A4A" opacity="1.000000" stroke="none" 
	d="
M1497.687256,1272.160400 
	C1504.114502,1249.635498 1524.736084,1240.893433 1543.936768,1243.727417 
	C1557.792847,1245.772461 1566.754395,1253.610718 1571.236328,1268.505615 
	C1568.097534,1269.309082 1564.986450,1270.105591 1561.510620,1270.995361 
	C1560.670532,1269.869751 1559.793823,1268.935059 1559.189819,1267.848755 
	C1552.445068,1255.717163 1545.909790,1252.236328 1532.402954,1253.653687 
	C1520.919312,1254.858765 1513.290771,1261.403687 1509.815552,1273.116577 
	C1506.900513,1282.941528 1506.898804,1292.820435 1509.690430,1302.653198 
	C1513.327515,1315.463867 1522.041504,1322.471558 1534.813110,1323.071045 
	C1546.739746,1323.630859 1554.981812,1318.119751 1560.215088,1306.099243 
	C1560.742065,1304.888794 1561.325439,1303.702759 1562.086670,1302.067139 
	C1563.983032,1302.190308 1565.920410,1302.126709 1567.772217,1302.494263 
	C1569.344360,1302.806152 1570.817871,1303.615845 1572.242920,1304.169312 
	C1569.291504,1322.851074 1553.696411,1334.640869 1534.261597,1333.279297 
	C1512.434692,1331.750122 1499.206543,1319.459717 1496.459961,1296.721313 
	C1495.522339,1288.958008 1497.079712,1280.893188 1497.687256,1272.160400 
z"/>
<path fill="#4B4B4B" opacity="1.000000" stroke="none" 
	d="
M2655.922852,1247.445068 
	C2659.685547,1241.315308 2664.675049,1245.518677 2668.995605,1243.571411 
	C2681.300781,1273.351929 2693.214844,1302.185425 2705.419678,1331.722900 
	C2700.552734,1331.722900 2696.647705,1331.722900 2692.211182,1331.722900 
	C2688.801025,1323.172363 2685.374756,1314.581787 2681.893799,1305.854004 
	C2669.564209,1305.854004 2657.664307,1305.854004 2645.264160,1305.854004 
	C2642.046875,1314.417969 2638.909424,1322.769531 2635.592041,1331.599854 
	C2631.791992,1331.599854 2627.986816,1331.599854 2623.249023,1331.599854 
	C2634.235352,1303.339600 2644.952637,1275.771362 2655.922852,1247.445068 
M2671.917480,1279.056641 
	C2669.121094,1271.725830 2666.324707,1264.394897 2663.129150,1256.017822 
	C2658.288086,1269.677246 2653.914795,1282.017822 2649.490723,1294.500732 
	C2659.547119,1294.500732 2668.259521,1294.500732 2677.683838,1294.500732 
	C2675.663574,1289.179321 2674.021729,1284.855225 2671.917480,1279.056641 
z"/>
<path fill="#4A4444" opacity="1.000000" stroke="none" 
	d="
M1943.394287,1269.349243 
	C1947.299805,1264.447876 1950.748901,1260.103394 1955.200806,1254.495728 
	C1938.602661,1254.495728 1923.490845,1254.495728 1907.680664,1254.495728 
	C1907.521118,1250.843018 1907.398193,1248.029663 1907.249146,1244.618164 
	C1928.374390,1244.618164 1948.841187,1244.618164 1969.226929,1244.618164 
	C1971.493164,1250.915649 1969.267456,1255.544556 1965.424805,1260.240112 
	C1950.236084,1278.800049 1935.319214,1297.582520 1920.304077,1316.284424 
	C1919.127563,1317.749878 1917.969971,1319.230469 1915.725708,1322.065308 
	C1935.223511,1322.065308 1953.002075,1322.065308 1971.330322,1322.065308 
	C1971.496094,1325.538574 1971.618042,1328.096069 1971.775635,1331.398438 
	C1948.621582,1331.398438 1925.817993,1331.398438 1902.662476,1331.398438 
	C1900.898926,1325.597046 1902.342407,1320.882324 1906.272949,1316.074585 
	C1918.710205,1300.861328 1930.746460,1285.320190 1943.394287,1269.349243 
z"/>
<path fill="#4D4A4A" opacity="1.000000" stroke="none" 
	d="
M2709.240234,1253.238281 
	C2708.541260,1250.101562 2708.541260,1247.545044 2708.541260,1244.513428 
	C2731.702637,1244.513428 2754.200195,1244.513428 2777.462402,1244.513428 
	C2777.713379,1247.307617 2777.963135,1250.087769 2778.314209,1253.995361 
	C2768.545166,1253.995361 2759.400635,1253.995361 2749.236816,1253.995361 
	C2749.236816,1280.494263 2749.236816,1305.945923 2749.236816,1331.754883 
	C2744.993164,1331.754883 2741.798340,1331.754883 2737.582031,1331.754883 
	C2737.582031,1305.990723 2737.582031,1280.552368 2737.582031,1253.818359 
	C2727.701172,1253.818359 2718.820068,1253.818359 2709.240234,1253.238281 
z"/>
<path fill="#4C4848" opacity="1.000000" stroke="none" 
	d="
M618.272461,1301.990479 
	C618.272522,1285.728882 618.272522,1270.465820 618.272522,1254.404785 
	C608.672485,1254.404785 599.802917,1254.404785 590.238464,1254.404785 
	C589.984558,1250.860229 589.784363,1248.064453 589.538635,1244.633789 
	C612.644043,1244.633789 635.180115,1244.633789 658.586426,1244.633789 
	C658.823792,1247.169312 659.084412,1249.953735 659.447510,1253.832764 
	C649.603821,1253.832764 640.442810,1253.832764 630.245483,1253.832764 
	C630.245483,1280.295288 630.245483,1305.759399 630.245483,1331.663330 
	C625.970703,1331.663330 622.753662,1331.663330 618.272461,1331.663330 
	C618.272461,1322.112549 618.272461,1312.550659 618.272461,1301.990479 
z"/>
<path fill="#4C4848" opacity="1.000000" stroke="none" 
	d="
M2592.076660,1325.552490 
	C2590.672607,1332.300903 2590.672607,1332.300903 2580.592285,1331.551636 
	C2580.592285,1306.214355 2580.592285,1280.777222 2580.592285,1254.271484 
	C2570.581055,1254.271484 2561.461426,1254.271484 2552.154053,1254.271484 
	C2552.154053,1250.399414 2552.154053,1247.615845 2552.154053,1244.439697 
	C2575.135986,1244.439697 2597.598633,1244.439697 2620.669434,1244.439697 
	C2620.669434,1247.558594 2620.669434,1250.329956 2620.669434,1254.112061 
	C2611.293457,1254.112061 2602.150635,1254.112061 2592.078125,1254.112061 
	C2592.078125,1278.267090 2592.078125,1301.432739 2592.076660,1325.552490 
z"/>
<path fill="#4C4848" opacity="1.000000" stroke="none" 
	d="
M2508.707031,1331.267334 
	C2490.445557,1331.828491 2472.908447,1331.828491 2454.826172,1331.828491 
	C2454.826172,1302.581177 2454.826172,1273.852539 2454.826172,1244.506958 
	C2458.304932,1244.320435 2461.503418,1244.148804 2465.697754,1243.923950 
	C2465.697754,1269.817871 2465.697754,1295.242310 2465.697754,1321.529541 
	C2480.430176,1321.529541 2494.238037,1321.529541 2509.431396,1321.529541 
	C2509.431396,1325.159180 2509.431396,1327.932739 2508.707031,1331.267334 
z"/>
<path fill="#4D4A4A" opacity="1.000000" stroke="none" 
	d="
M921.466919,1322.120605 
	C923.226501,1325.076538 924.034607,1327.960449 925.062805,1331.630127 
	C905.988342,1331.630127 888.237488,1331.630127 870.041931,1331.630127 
	C870.041931,1302.455933 870.041931,1273.723755 870.041931,1244.514404 
	C873.649719,1244.514404 876.839844,1244.514404 880.996948,1244.514404 
	C880.996948,1270.026611 880.996948,1295.459839 880.996948,1322.048828 
	C894.790955,1322.048828 907.653137,1322.048828 921.466919,1322.120605 
z"/>
<path fill="#515050" opacity="1.000000" stroke="none" 
	d="
M1074.487427,1258.329468 
	C1074.487183,1283.213501 1074.487183,1307.140869 1074.487183,1331.619385 
	C1070.541748,1331.619385 1067.095093,1331.619385 1063.325195,1331.619385 
	C1063.325195,1302.358887 1063.325195,1273.542847 1063.325195,1244.366089 
	C1067.074707,1244.366089 1070.316650,1244.366089 1074.487671,1244.366089 
	C1074.487671,1248.904175 1074.487671,1253.138550 1074.487427,1258.329468 
z"/>
<path fill="#4D4C4C" opacity="1.000000" stroke="none" 
	d="
M2525.940186,1325.555786 
	C2525.938965,1298.066772 2525.938965,1271.537720 2525.938965,1244.524414 
	C2530.039795,1244.524414 2533.241943,1244.524414 2537.100098,1244.524414 
	C2537.100098,1273.284790 2537.100098,1302.047241 2537.095703,1330.812012 
	C2527.505859,1332.914062 2527.505859,1332.914062 2525.940186,1325.555786 
z"/>
<path fill="#4D4C4C" opacity="1.000000" stroke="none" 
	d="
M1875.938965,1276.005859 
	C1875.938965,1265.087891 1875.938965,1255.168091 1875.938965,1244.645996 
	C1880.052246,1244.645996 1883.452515,1244.645996 1887.307251,1244.645996 
	C1887.307251,1273.564331 1887.307251,1302.048218 1887.307251,1331.639038 
	C1883.964111,1331.811279 1880.555420,1331.986938 1875.938965,1332.224731 
	C1875.938965,1313.366943 1875.938965,1295.185547 1875.938965,1276.005859 
z"/>
<path fill="#4D4C4C" opacity="1.000000" stroke="none" 
	d="
M951.751831,1286.000244 
	C951.751770,1301.582764 951.751770,1316.165283 951.751770,1331.444336 
	C947.775085,1331.444336 944.366516,1331.444336 940.437134,1331.444336 
	C940.437134,1302.572754 940.437134,1273.820679 940.437134,1244.436646 
	C943.984314,1244.281494 947.180298,1244.141724 951.751831,1243.941650 
	C951.751831,1257.977173 951.751831,1271.488770 951.751831,1286.000244 
z"/>
<path fill="#515050" opacity="1.000000" stroke="none" 
	d="
M1349.589722,1328.140625 
	C1349.672363,1325.630493 1349.774170,1323.998047 1349.916016,1321.725830 
	C1353.615601,1321.725830 1357.079712,1321.725830 1360.540649,1321.725830 
	C1363.976318,1336.432251 1361.411499,1344.299805 1351.530396,1349.258179 
	C1347.578247,1345.959106 1352.016602,1344.395630 1352.980957,1342.088623 
	C1353.988037,1339.678833 1354.733765,1337.159912 1355.529175,1334.874634 
	C1353.340210,1332.709351 1351.474487,1330.863770 1349.589722,1328.140625 
z"/>
<path fill="#5B5A5A" opacity="1.000000" stroke="none" 
	d="
M2680.268555,1230.722900 
	C2680.355225,1233.739258 2680.355225,1235.984985 2680.355225,1238.964355 
	C2676.645264,1239.195435 2673.550781,1239.388306 2669.572021,1239.636230 
	C2669.572021,1235.661987 2669.572021,1232.337158 2669.572021,1228.453003 
	C2673.260254,1228.261108 2676.980713,1226.346191 2680.268555,1230.722900 
z"/>
<path fill="#5B5A5A" opacity="1.000000" stroke="none" 
	d="
M2658.008301,1232.052002 
	C2656.849609,1239.838013 2656.849609,1239.838013 2646.736572,1238.648682 
	C2646.522949,1235.686890 2646.297852,1232.567993 2646.025391,1228.791138 
	C2650.614746,1228.652832 2655.029785,1225.281860 2658.008301,1232.052002 
z"/>
<path fill="#FFFEFE" opacity="1.000000" stroke="none" 
	d="
M1050.000244,547.294556 
	C1084.654663,547.295166 1118.309082,547.289612 1151.963501,547.306580 
	C1155.292603,547.308289 1158.646484,547.215332 1161.946045,547.567505 
	C1170.940796,548.527710 1176.432251,553.361389 1178.564697,562.274963 
	C1179.252930,565.151917 1179.528198,568.192810 1179.531128,571.159119 
	C1179.584595,626.805481 1179.626953,682.452026 1179.531128,738.098267 
	C1179.502319,754.741943 1172.264404,761.791504 1155.750610,761.927368 
	C1153.084961,761.949280 1150.419189,761.933167 1147.753418,761.933167 
	C1091.773804,761.933350 1035.794189,761.933289 979.814575,761.933289 
	C976.197205,761.933289 972.579834,761.933350 967.574829,761.933350 
	C967.574829,766.016846 967.574768,769.538452 967.574768,773.060059 
	C967.574707,831.038940 967.577820,889.017883 967.565613,946.996765 
	C967.565002,949.992004 967.726868,953.028381 967.311890,955.975037 
	C965.792297,966.764771 958.752808,973.180420 947.878601,973.898315 
	C945.887634,974.029785 943.881226,973.932129 941.881958,973.932190 
	C887.235168,973.933044 832.588379,973.934937 777.941589,973.925903 
	C775.277832,973.925476 772.580811,974.077454 769.956482,973.728333 
	C761.299561,972.576843 755.349060,967.323120 753.431458,958.685303 
	C752.578430,954.843018 752.468811,950.777893 752.464844,946.813477 
	C752.407471,889.167847 752.425354,831.522095 752.425171,773.876404 
	C752.425171,770.277771 752.425171,766.679077 752.425171,761.933411 
	C748.113831,761.933411 744.557251,761.933411 741.000671,761.933411 
	C683.021790,761.933350 625.042847,761.934265 567.063965,761.930237 
	C564.065430,761.929993 561.045715,762.108826 558.072205,761.824219 
	C547.279053,760.791199 540.539612,753.754822 539.816345,742.916992 
	C539.683411,740.925720 539.749329,738.920166 539.749268,736.921204 
	C539.747131,681.941223 539.745605,626.961182 539.757141,571.981201 
	C539.757690,569.317749 539.644287,566.623901 539.985535,563.996399 
	C541.144165,555.075378 547.322876,548.831970 556.271790,547.695679 
	C559.887695,547.236450 563.583801,547.311096 567.243530,547.309753 
	C624.889221,547.288757 682.534912,547.295044 740.180603,547.294983 
	C743.789490,547.294983 747.398438,547.294922 752.425171,547.294922 
	C752.425171,542.986633 752.425232,539.468140 752.425232,535.949646 
	C752.425293,477.970734 752.421692,419.991852 752.435120,362.012939 
	C752.435852,358.684753 752.252258,355.311523 752.709167,352.036652 
	C754.215881,341.236115 761.229614,334.886688 772.142273,334.105408 
	C772.805908,334.057892 773.474609,334.074951 774.140991,334.074921 
	C831.453491,334.073853 888.766113,333.991028 946.078247,334.135559 
	C959.536804,334.169495 966.869629,341.723450 967.547852,355.221039 
	C967.664795,357.547852 967.574280,359.885193 967.574280,362.217682 
	C967.574951,419.863373 967.574768,477.509094 967.574768,535.154785 
	C967.574768,538.781677 967.574829,542.408630 967.574829,547.294739 
	C995.214722,547.294739 1022.107422,547.294739 1050.000244,547.294556 
z"/>
<path fill="#F9FBFB" opacity="1.000000" stroke="none" 
	d="
M1713.748535,890.233093 
	C1721.616089,915.699097 1729.289917,940.391724 1737.152344,965.691406 
	C1714.480713,965.691406 1692.630737,965.691406 1669.340088,965.691406 
	C1679.865967,929.601624 1691.254150,894.191772 1702.913940,856.561157 
	C1706.900757,868.887634 1710.227661,879.173706 1713.748535,890.233093 
z"/>
<path fill="#FBFAFA" opacity="1.000000" stroke="none" 
	d="
M2682.585449,857.979614 
	C2686.671875,867.262146 2687.383057,876.019104 2684.046875,884.874878 
	C2679.469482,897.025635 2669.741699,902.833984 2657.723633,905.260071 
	C2651.881592,906.439453 2645.856201,907.001221 2639.891357,907.214844 
	C2630.987793,907.533630 2622.063965,907.297546 2612.635986,907.297546 
	C2612.635986,884.281006 2612.635986,862.196960 2612.635986,840.285278 
	C2627.670654,840.285278 2642.275879,839.525940 2656.758545,840.532349 
	C2667.773438,841.297791 2677.078369,846.633789 2682.585449,857.979614 
z"/>
<path fill="#FBFBFB" opacity="1.000000" stroke="none" 
	d="
M2228.928223,1310.942627 
	C2229.076416,1313.280762 2229.046631,1315.484863 2230.126953,1316.463989 
	C2231.904297,1318.074463 2234.400879,1318.891479 2237.232178,1320.377686 
	C2220.074951,1326.342041 2205.081543,1319.747314 2199.459961,1304.260498 
	C2195.590088,1293.599731 2195.635010,1282.699341 2199.322266,1272.006836 
	C2203.213135,1260.724365 2212.849854,1253.950562 2225.085693,1253.413574 
	C2237.534424,1252.867065 2246.841553,1257.812256 2252.931396,1268.935669 
	C2258.778809,1279.615601 2258.726562,1306.599731 2247.047607,1314.963135 
	C2242.908203,1312.951172 2238.618896,1310.588501 2234.090820,1308.846069 
	C2232.843018,1308.365845 2230.882568,1309.736938 2228.928223,1310.942627 
z"/>
<path fill="#F8F8F8" opacity="1.000000" stroke="none" 
	d="
M559.502747,1255.736084 
	C567.058594,1259.081177 569.417664,1264.532715 568.019348,1271.515503 
	C566.564331,1278.781616 561.252747,1282.162842 554.362915,1282.417847 
	C543.839844,1282.807495 533.291687,1282.520020 522.324646,1282.520020 
	C522.324646,1273.264038 522.324646,1264.382690 522.324646,1254.122192 
	C534.503906,1254.653809 546.606506,1252.687622 559.502747,1255.736084 
z"/>
<path fill="#F8F8F8" opacity="1.000000" stroke="none" 
	d="
M2121.484619,1277.112915 
	C2118.093262,1279.242676 2115.239502,1281.871460 2112.272461,1282.006592 
	C2101.104004,1282.514526 2089.898193,1282.210327 2078.295898,1282.210327 
	C2078.295898,1273.217407 2078.295898,1264.331543 2078.295898,1254.593628 
	C2089.602539,1254.593628 2100.887207,1253.619141 2111.922119,1254.862793 
	C2123.368896,1256.152954 2126.658203,1264.505493 2121.484619,1277.112915 
z"/>
<path fill="#F0EFEF" opacity="1.000000" stroke="none" 
	d="
M451.996704,1273.989746 
	C454.094116,1268.032715 455.975342,1262.818481 458.455902,1255.942993 
	C463.563141,1269.682129 468.058746,1281.776001 472.902039,1294.805176 
	C462.796021,1294.805176 454.090820,1294.805176 444.272888,1294.805176 
	C446.974060,1287.583130 449.377319,1281.157715 451.996704,1273.989746 
z"/>
<path fill="#F0EFEF" opacity="1.000000" stroke="none" 
	d="
M2401.252930,1261.836670 
	C2401.851318,1259.896484 2402.208252,1258.634033 2403.090820,1255.510620 
	C2408.309570,1269.196899 2412.938477,1281.336182 2417.896240,1294.337646 
	C2408.327148,1296.155884 2399.451416,1295.423584 2389.441650,1294.780884 
	C2393.505615,1283.447144 2397.258545,1272.980835 2401.252930,1261.836670 
z"/>
<path fill="#F0EFEF" opacity="1.000000" stroke="none" 
	d="
M2672.148926,1279.793945 
	C2674.021729,1284.855225 2675.663574,1289.179321 2677.683838,1294.500732 
	C2668.259521,1294.500732 2659.547119,1294.500732 2649.490723,1294.500732 
	C2653.914795,1282.017822 2658.288086,1269.677246 2663.129150,1256.017822 
	C2666.324707,1264.394897 2669.121094,1271.725830 2672.148926,1279.793945 
z"/>
</svg>